<svg id="Layer_1" data-name="Layer 1" xmlns="http://www.w3.org/2000/svg" xmlns:xlink="http://www.w3.org/1999/xlink" viewBox="0 0 28.26 19.75"><defs><style>.cls-1{fill:none;stroke:#231f20;stroke-miterlimit:10;stroke-width:0.25px;}.cls-2,.cls-215{fill:#d31818;}.cls-3{fill:url(#linear-gradient);}.cls-4{fill:url(#linear-gradient-2);}.cls-5{fill:url(#linear-gradient-3);}.cls-6{fill:url(#linear-gradient-4);}.cls-7{fill:url(#linear-gradient-5);}.cls-8{fill:url(#linear-gradient-6);}.cls-9{fill:url(#linear-gradient-7);}.cls-10{fill:url(#linear-gradient-8);}.cls-11{fill:url(#linear-gradient-9);}.cls-12{fill:url(#linear-gradient-10);}.cls-13{fill:url(#linear-gradient-11);}.cls-14{fill:url(#linear-gradient-12);}.cls-15{fill:url(#linear-gradient-13);}.cls-16{fill:url(#linear-gradient-14);}.cls-17{fill:url(#linear-gradient-15);}.cls-18{fill:url(#linear-gradient-16);}.cls-19{fill:url(#linear-gradient-17);}.cls-20{fill:url(#linear-gradient-18);}.cls-21{fill:url(#linear-gradient-19);}.cls-22{fill:url(#linear-gradient-20);}.cls-23{fill:url(#linear-gradient-21);}.cls-24{fill:url(#linear-gradient-22);}.cls-25{fill:url(#linear-gradient-23);}.cls-26{fill:url(#linear-gradient-24);}.cls-27{fill:url(#linear-gradient-25);}.cls-28{fill:url(#linear-gradient-26);}.cls-29{fill:url(#linear-gradient-27);}.cls-30{fill:url(#linear-gradient-28);}.cls-31{fill:url(#linear-gradient-29);}.cls-32{fill:url(#linear-gradient-30);}.cls-33{fill:url(#linear-gradient-31);}.cls-34{fill:url(#linear-gradient-32);}.cls-35{fill:url(#linear-gradient-33);}.cls-36{fill:url(#linear-gradient-34);}.cls-37{fill:url(#linear-gradient-35);}.cls-38{fill:url(#linear-gradient-36);}.cls-39{fill:url(#linear-gradient-37);}.cls-40{fill:url(#linear-gradient-38);}.cls-41{fill:url(#linear-gradient-39);}.cls-42{fill:url(#linear-gradient-40);}.cls-43{fill:url(#linear-gradient-41);}.cls-44{fill:url(#linear-gradient-42);}.cls-45{fill:url(#linear-gradient-43);}.cls-46{fill:url(#linear-gradient-44);}.cls-47{fill:url(#linear-gradient-45);}.cls-48{fill:url(#linear-gradient-46);}.cls-49{fill:url(#linear-gradient-47);}.cls-50{fill:url(#linear-gradient-48);}.cls-51{fill:url(#linear-gradient-49);}.cls-52{fill:url(#linear-gradient-50);}.cls-53{fill:url(#linear-gradient-51);}.cls-54{fill:url(#linear-gradient-52);}.cls-55{fill:url(#linear-gradient-53);}.cls-56{fill:url(#linear-gradient-54);}.cls-57{fill:url(#linear-gradient-55);}.cls-58{fill:url(#linear-gradient-56);}.cls-59{fill:url(#linear-gradient-57);}.cls-60{fill:url(#linear-gradient-58);}.cls-61{fill:url(#linear-gradient-59);}.cls-62{fill:url(#linear-gradient-60);}.cls-63{fill:url(#linear-gradient-61);}.cls-64{fill:url(#linear-gradient-62);}.cls-65{fill:url(#linear-gradient-63);}.cls-66{fill:url(#linear-gradient-64);}.cls-67{fill:url(#linear-gradient-65);}.cls-68{fill:url(#linear-gradient-66);}.cls-69{fill:url(#linear-gradient-67);}.cls-70{fill:url(#linear-gradient-68);}.cls-71{fill:url(#linear-gradient-69);}.cls-72{fill:url(#linear-gradient-70);}.cls-73{fill:url(#linear-gradient-71);}.cls-74{fill:url(#linear-gradient-72);}.cls-75{fill:url(#linear-gradient-73);}.cls-76{fill:url(#linear-gradient-74);}.cls-77{fill:url(#linear-gradient-75);}.cls-78{fill:url(#linear-gradient-76);}.cls-79{fill:url(#linear-gradient-77);}.cls-80{fill:url(#linear-gradient-78);}.cls-81{fill:url(#linear-gradient-79);}.cls-82{fill:url(#linear-gradient-80);}.cls-83{fill:url(#linear-gradient-81);}.cls-84{fill:url(#linear-gradient-82);}.cls-85{fill:url(#linear-gradient-83);}.cls-86{fill:url(#linear-gradient-84);}.cls-87{fill:url(#linear-gradient-85);}.cls-88{fill:url(#linear-gradient-86);}.cls-89{fill:url(#linear-gradient-87);}.cls-90{fill:url(#linear-gradient-88);}.cls-91{fill:url(#linear-gradient-89);}.cls-92{fill:url(#linear-gradient-90);}.cls-93{fill:url(#linear-gradient-91);}.cls-94{fill:url(#linear-gradient-92);}.cls-95{fill:url(#linear-gradient-93);}.cls-96{fill:url(#linear-gradient-94);}.cls-97{fill:url(#linear-gradient-95);}.cls-98{fill:url(#linear-gradient-96);}.cls-99{fill:url(#linear-gradient-97);}.cls-100{fill:url(#linear-gradient-98);}.cls-101{fill:url(#linear-gradient-99);}.cls-102{fill:url(#linear-gradient-100);}.cls-103{fill:url(#linear-gradient-101);}.cls-104{fill:url(#linear-gradient-102);}.cls-105{fill:url(#linear-gradient-103);}.cls-106{fill:url(#linear-gradient-104);}.cls-107{fill:url(#linear-gradient-105);}.cls-108{fill:url(#linear-gradient-106);}.cls-109{fill:url(#linear-gradient-107);}.cls-110{fill:url(#linear-gradient-108);}.cls-111{fill:url(#linear-gradient-109);}.cls-112{fill:url(#linear-gradient-110);}.cls-113{fill:url(#linear-gradient-111);}.cls-114{fill:url(#linear-gradient-112);}.cls-115{fill:url(#linear-gradient-113);}.cls-116{fill:url(#linear-gradient-114);}.cls-117{fill:url(#linear-gradient-115);}.cls-118{fill:url(#linear-gradient-116);}.cls-119{fill:url(#linear-gradient-117);}.cls-120{fill:url(#linear-gradient-118);}.cls-121{fill:url(#linear-gradient-119);}.cls-122{fill:url(#linear-gradient-120);}.cls-123{fill:url(#linear-gradient-121);}.cls-124{fill:url(#linear-gradient-122);}.cls-125{fill:url(#linear-gradient-123);}.cls-126{fill:url(#linear-gradient-124);}.cls-127{fill:url(#linear-gradient-125);}.cls-128{fill:url(#linear-gradient-126);}.cls-129{fill:url(#linear-gradient-127);}.cls-130{fill:url(#linear-gradient-128);}.cls-131{fill:url(#linear-gradient-129);}.cls-132{fill:url(#linear-gradient-130);}.cls-133{fill:url(#linear-gradient-131);}.cls-134{fill:url(#linear-gradient-132);}.cls-135{fill:url(#linear-gradient-133);}.cls-136{fill:url(#linear-gradient-134);}.cls-137{fill:url(#linear-gradient-135);}.cls-138{fill:url(#linear-gradient-136);}.cls-139{fill:url(#linear-gradient-137);}.cls-140{fill:url(#linear-gradient-138);}.cls-141{fill:url(#linear-gradient-139);}.cls-142{fill:url(#linear-gradient-140);}.cls-143{fill:url(#linear-gradient-141);}.cls-144{fill:url(#linear-gradient-142);}.cls-145{fill:url(#linear-gradient-143);}.cls-146{fill:url(#linear-gradient-144);}.cls-147{fill:url(#linear-gradient-145);}.cls-148{fill:url(#linear-gradient-146);}.cls-149{fill:url(#linear-gradient-147);}.cls-150{fill:url(#linear-gradient-148);}.cls-151{fill:url(#linear-gradient-149);}.cls-152{fill:url(#linear-gradient-150);}.cls-153{fill:url(#linear-gradient-151);}.cls-154{fill:url(#linear-gradient-152);}.cls-155{fill:url(#linear-gradient-153);}.cls-156{fill:url(#linear-gradient-154);}.cls-157{fill:url(#linear-gradient-155);}.cls-158{fill:url(#linear-gradient-156);}.cls-159{fill:url(#linear-gradient-157);}.cls-160{fill:url(#linear-gradient-158);}.cls-161{fill:url(#linear-gradient-159);}.cls-162{fill:url(#linear-gradient-160);}.cls-163{fill:url(#linear-gradient-161);}.cls-164{fill:url(#linear-gradient-162);}.cls-165{fill:url(#linear-gradient-163);}.cls-166{fill:url(#linear-gradient-164);}.cls-167{fill:url(#linear-gradient-165);}.cls-168{fill:url(#linear-gradient-166);}.cls-169{fill:url(#linear-gradient-167);}.cls-170{fill:url(#linear-gradient-168);}.cls-171{fill:url(#linear-gradient-169);}.cls-172{fill:url(#linear-gradient-170);}.cls-173{fill:url(#linear-gradient-171);}.cls-174{fill:url(#linear-gradient-172);}.cls-175{fill:url(#linear-gradient-173);}.cls-176{fill:url(#linear-gradient-174);}.cls-177{fill:url(#linear-gradient-175);}.cls-178{fill:url(#linear-gradient-176);}.cls-179{fill:url(#linear-gradient-177);}.cls-180{fill:url(#linear-gradient-178);}.cls-181{fill:url(#linear-gradient-179);}.cls-182{fill:url(#linear-gradient-180);}.cls-183{fill:url(#linear-gradient-181);}.cls-184{fill:url(#linear-gradient-182);}.cls-185{fill:url(#linear-gradient-183);}.cls-186{fill:url(#linear-gradient-184);}.cls-187{fill:url(#linear-gradient-185);}.cls-188{fill:url(#linear-gradient-186);}.cls-189{fill:url(#linear-gradient-187);}.cls-190{fill:url(#linear-gradient-188);}.cls-191{fill:url(#linear-gradient-189);}.cls-192{fill:url(#linear-gradient-190);}.cls-193{fill:url(#linear-gradient-191);}.cls-194{fill:url(#linear-gradient-192);}.cls-195{fill:url(#linear-gradient-193);}.cls-196{fill:url(#linear-gradient-194);}.cls-197{fill:url(#linear-gradient-195);}.cls-198{fill:url(#linear-gradient-196);}.cls-199{fill:url(#linear-gradient-197);}.cls-200{fill:url(#linear-gradient-198);}.cls-201{fill:url(#linear-gradient-199);}.cls-202{fill:url(#linear-gradient-200);}.cls-203{fill:url(#linear-gradient-201);}.cls-204{fill:url(#linear-gradient-202);}.cls-205{fill:url(#linear-gradient-203);}.cls-206{fill:url(#linear-gradient-204);}.cls-207{fill:url(#linear-gradient-205);}.cls-208{fill:url(#linear-gradient-206);}.cls-209{fill:url(#linear-gradient-207);}.cls-210{fill:url(#linear-gradient-208);}.cls-211{fill:url(#linear-gradient-209);}.cls-212{fill:url(#linear-gradient-210);}.cls-213{fill:url(#linear-gradient-211);}.cls-214{fill:url(#linear-gradient-212);}.cls-215{font-size:2.22px;font-family:NotoSans, Noto Sans;}</style><linearGradient id="linear-gradient" x1="14.78" y1="1.25" x2="15.87" y2="1.25" gradientUnits="userSpaceOnUse"><stop offset="0" stop-color="#fceb94"/><stop offset="0.49" stop-color="#dc9900"/><stop offset="1" stop-color="#c26000"/></linearGradient><linearGradient id="linear-gradient-2" x1="15.11" y1="1.12" x2="16.17" y2="1.12" xlink:href="#linear-gradient"/><linearGradient id="linear-gradient-3" x1="16.45" y1="1.32" x2="17.48" y2="1.32" xlink:href="#linear-gradient"/><linearGradient id="linear-gradient-4" x1="13.8" y1="1.19" x2="14.84" y2="1.19" xlink:href="#linear-gradient"/><linearGradient id="linear-gradient-5" x1="15.58" y1="1.05" x2="16.54" y2="1.05" xlink:href="#linear-gradient"/><linearGradient id="linear-gradient-6" x1="16.75" y1="1.08" x2="16.98" y2="1.08" xlink:href="#linear-gradient"/><linearGradient id="linear-gradient-7" x1="17.18" y1="1.28" x2="17.99" y2="1.28" xlink:href="#linear-gradient"/><linearGradient id="linear-gradient-8" x1="11.76" y1="9.65" x2="13.05" y2="9.65" xlink:href="#linear-gradient"/><linearGradient id="linear-gradient-9" x1="10.66" y1="6.81" x2="11.86" y2="6.81" xlink:href="#linear-gradient"/><linearGradient id="linear-gradient-10" x1="11.67" y1="5.68" x2="12.9" y2="5.68" xlink:href="#linear-gradient"/><linearGradient id="linear-gradient-11" x1="9.08" y1="7.22" x2="10.09" y2="7.22" xlink:href="#linear-gradient"/><linearGradient id="linear-gradient-12" x1="8.63" y1="10.72" x2="9.5" y2="10.72" xlink:href="#linear-gradient"/><linearGradient id="linear-gradient-13" x1="11.03" y1="4.97" x2="12.2" y2="4.97" xlink:href="#linear-gradient"/><linearGradient id="linear-gradient-14" x1="11.08" y1="11.01" x2="12.32" y2="11.01" xlink:href="#linear-gradient"/><linearGradient id="linear-gradient-15" x1="12.48" y1="6.39" x2="13.75" y2="6.39" xlink:href="#linear-gradient"/><linearGradient id="linear-gradient-16" x1="21.72" y1="8.52" x2="22.38" y2="8.52" xlink:href="#linear-gradient"/><linearGradient id="linear-gradient-17" x1="12.23" y1="4.06" x2="13.42" y2="4.06" xlink:href="#linear-gradient"/><linearGradient id="linear-gradient-18" x1="9.5" y1="5.27" x2="10.48" y2="5.27" xlink:href="#linear-gradient"/><linearGradient id="linear-gradient-19" x1="8.59" y1="6.42" x2="9.46" y2="6.42" xlink:href="#linear-gradient"/><linearGradient id="linear-gradient-20" x1="11.53" y1="7.58" x2="12.79" y2="7.58" xlink:href="#linear-gradient"/><linearGradient id="linear-gradient-21" x1="7.88" y1="7.72" x2="8.61" y2="7.72" xlink:href="#linear-gradient"/><linearGradient id="linear-gradient-22" x1="12.56" y1="8.33" x2="13.86" y2="8.33" xlink:href="#linear-gradient"/><linearGradient id="linear-gradient-23" x1="10.01" y1="10.2" x2="11.15" y2="10.2" xlink:href="#linear-gradient"/><linearGradient id="linear-gradient-24" x1="11.84" y1="3.44" x2="12.96" y2="3.44" xlink:href="#linear-gradient"/><linearGradient id="linear-gradient-25" x1="10.7" y1="8.86" x2="11.92" y2="8.86" xlink:href="#linear-gradient"/><linearGradient id="linear-gradient-26" x1="23.35" y1="11.39" x2="23.89" y2="11.39" xlink:href="#linear-gradient"/><linearGradient id="linear-gradient-27" x1="7.74" y1="11.21" x2="8.28" y2="11.21" xlink:href="#linear-gradient"/><linearGradient id="linear-gradient-28" x1="8.4" y1="11.8" x2="9.1" y2="11.8" xlink:href="#linear-gradient"/><linearGradient id="linear-gradient-29" x1="7.45" y1="9.09" x2="7.99" y2="9.09" xlink:href="#linear-gradient"/><linearGradient id="linear-gradient-30" x1="9.1" y1="9.37" x2="10.12" y2="9.37" xlink:href="#linear-gradient"/><linearGradient id="linear-gradient-31" x1="9.97" y1="6.02" x2="11.08" y2="6.02" xlink:href="#linear-gradient"/><linearGradient id="linear-gradient-32" x1="14.64" y1="4.38" x2="15.81" y2="4.38" xlink:href="#linear-gradient"/><linearGradient id="linear-gradient-33" x1="12.81" y1="4.69" x2="14.03" y2="4.69" xlink:href="#linear-gradient"/><linearGradient id="linear-gradient-34" x1="9.28" y1="4.58" x2="10.13" y2="4.58" xlink:href="#linear-gradient"/><linearGradient id="linear-gradient-35" x1="8.36" y1="5.7" x2="9.07" y2="5.7" xlink:href="#linear-gradient"/><linearGradient id="linear-gradient-36" x1="8.37" y1="8.53" x2="9.27" y2="8.53" xlink:href="#linear-gradient"/><linearGradient id="linear-gradient-37" x1="11.65" y1="2.89" x2="12.68" y2="2.89" xlink:href="#linear-gradient"/><linearGradient id="linear-gradient-38" x1="9.52" y1="11.42" x2="10.52" y2="11.42" xlink:href="#linear-gradient"/><linearGradient id="linear-gradient-39" x1="19.99" y1="9.52" x2="19.99" y2="9.52" xlink:href="#linear-gradient"/><linearGradient id="linear-gradient-40" x1="21.72" y1="10.04" x2="22.42" y2="10.04" xlink:href="#linear-gradient"/><linearGradient id="linear-gradient-41" x1="14.9" y1="2.78" x2="16.06" y2="2.78" xlink:href="#linear-gradient"/><linearGradient id="linear-gradient-42" x1="7.93" y1="9.89" x2="8.65" y2="9.89" xlink:href="#linear-gradient"/><linearGradient id="linear-gradient-43" x1="13.03" y1="2.35" x2="14.12" y2="2.35" xlink:href="#linear-gradient"/><linearGradient id="linear-gradient-44" x1="23.97" y1="9.63" x2="24.35" y2="9.63" xlink:href="#linear-gradient"/><linearGradient id="linear-gradient-45" x1="7.66" y1="7" x2="8.22" y2="7" xlink:href="#linear-gradient"/><linearGradient id="linear-gradient-46" x1="10.6" y1="4.27" x2="11.66" y2="4.27" xlink:href="#linear-gradient"/><linearGradient id="linear-gradient-47" x1="9.79" y1="8.04" x2="10.92" y2="8.04" xlink:href="#linear-gradient"/><linearGradient id="linear-gradient-48" x1="16.87" y1="8.87" x2="18.04" y2="8.87" xlink:href="#linear-gradient"/><linearGradient id="linear-gradient-49" x1="24" y1="11.12" x2="24.37" y2="11.12" xlink:href="#linear-gradient"/><linearGradient id="linear-gradient-50" x1="22.5" y1="11.54" x2="23.21" y2="11.54" xlink:href="#linear-gradient"/><linearGradient id="linear-gradient-51" x1="7.29" y1="10.44" x2="7.65" y2="10.44" xlink:href="#linear-gradient"/><linearGradient id="linear-gradient-52" x1="20.6" y1="9.93" x2="21.47" y2="9.93" xlink:href="#linear-gradient"/><linearGradient id="linear-gradient-53" x1="14.02" y1="3.85" x2="15.22" y2="3.85" xlink:href="#linear-gradient"/><linearGradient id="linear-gradient-54" x1="12.83" y1="3.16" x2="12.83" y2="3.16" xlink:href="#linear-gradient"/><linearGradient id="linear-gradient-55" x1="11.63" y1="2.41" x2="12.62" y2="2.41" xlink:href="#linear-gradient"/><linearGradient id="linear-gradient-56" x1="10.36" y1="3.1" x2="11.27" y2="3.1" xlink:href="#linear-gradient"/><linearGradient id="linear-gradient-57" x1="18.12" y1="9.33" x2="19.22" y2="9.33" xlink:href="#linear-gradient"/><linearGradient id="linear-gradient-58" x1="14.5" y1="2.02" x2="15.61" y2="2.02" xlink:href="#linear-gradient"/><linearGradient id="linear-gradient-59" x1="9.26" y1="4" x2="10.05" y2="4" xlink:href="#linear-gradient"/><linearGradient id="linear-gradient-60" x1="18.56" y1="7.9" x2="19.51" y2="7.9" xlink:href="#linear-gradient"/><linearGradient id="linear-gradient-61" x1="14.5" y1="7.73" x2="15.77" y2="7.73" xlink:href="#linear-gradient"/><linearGradient id="linear-gradient-62" x1="7.24" y1="8.38" x2="7.59" y2="8.38" xlink:href="#linear-gradient"/><linearGradient id="linear-gradient-63" x1="19.37" y1="9.68" x2="20.38" y2="9.68" xlink:href="#linear-gradient"/><linearGradient id="linear-gradient-64" x1="13.19" y1="2.81" x2="14.34" y2="2.81" xlink:href="#linear-gradient"/><linearGradient id="linear-gradient-65" x1="15.29" y1="3.19" x2="16.43" y2="3.19" xlink:href="#linear-gradient"/><linearGradient id="linear-gradient-66" x1="14.94" y1="9.7" x2="16.25" y2="9.7" xlink:href="#linear-gradient"/><linearGradient id="linear-gradient-67" x1="22.67" y1="6.95" x2="23.32" y2="6.95" xlink:href="#linear-gradient"/><linearGradient id="linear-gradient-68" x1="23.96" y1="7.85" x2="24.38" y2="7.85" xlink:href="#linear-gradient"/><linearGradient id="linear-gradient-69" x1="13.44" y1="7.08" x2="14.71" y2="7.08" xlink:href="#linear-gradient"/><linearGradient id="linear-gradient-70" x1="23.14" y1="8.39" x2="23.71" y2="8.39" xlink:href="#linear-gradient"/><linearGradient id="linear-gradient-71" x1="22.15" y1="7.04" x2="22.82" y2="7.04" xlink:href="#linear-gradient"/><linearGradient id="linear-gradient-72" x1="13.53" y1="3.32" x2="14.72" y2="3.32" xlink:href="#linear-gradient"/><linearGradient id="linear-gradient-73" x1="14.48" y1="1.71" x2="15.57" y2="1.71" xlink:href="#linear-gradient"/><linearGradient id="linear-gradient-74" x1="16.18" y1="5.37" x2="17.24" y2="5.37" xlink:href="#linear-gradient"/><linearGradient id="linear-gradient-75" x1="13.53" y1="5.32" x2="14.76" y2="5.32" xlink:href="#linear-gradient"/><linearGradient id="linear-gradient-76" x1="13.43" y1="4.4" x2="13.43" y2="4.4" xlink:href="#linear-gradient"/><linearGradient id="linear-gradient-77" x1="20.28" y1="11.36" x2="21.31" y2="11.36" xlink:href="#linear-gradient"/><linearGradient id="linear-gradient-78" x1="24.35" y1="9.29" x2="24.63" y2="9.29" xlink:href="#linear-gradient"/><linearGradient id="linear-gradient-79" x1="19.39" y1="4.12" x2="19.77" y2="4.12" xlink:href="#linear-gradient"/><linearGradient id="linear-gradient-80" x1="8.33" y1="5.1" x2="8.98" y2="5.1" xlink:href="#linear-gradient"/><linearGradient id="linear-gradient-81" x1="18.46" y1="5.01" x2="19.14" y2="5.01" xlink:href="#linear-gradient"/><linearGradient id="linear-gradient-82" x1="7.31" y1="11.77" x2="7.64" y2="11.77" xlink:href="#linear-gradient"/><linearGradient id="linear-gradient-83" x1="17.6" y1="10.78" x2="18.83" y2="10.78" xlink:href="#linear-gradient"/><linearGradient id="linear-gradient-84" x1="22.51" y1="8.51" x2="23.13" y2="8.51" xlink:href="#linear-gradient"/><linearGradient id="linear-gradient-85" x1="17.72" y1="4.7" x2="18.52" y2="4.7" xlink:href="#linear-gradient"/><linearGradient id="linear-gradient-86" x1="16.25" y1="10.28" x2="17.53" y2="10.28" xlink:href="#linear-gradient"/><linearGradient id="linear-gradient-87" x1="21.48" y1="11.53" x2="22.34" y2="11.53" xlink:href="#linear-gradient"/><linearGradient id="linear-gradient-88" x1="17.02" y1="4.36" x2="17.94" y2="4.36" xlink:href="#linear-gradient"/><linearGradient id="linear-gradient-89" x1="18.94" y1="11.13" x2="20.11" y2="11.13" xlink:href="#linear-gradient"/><linearGradient id="linear-gradient-90" x1="10.39" y1="3.64" x2="11.34" y2="3.64" xlink:href="#linear-gradient"/><linearGradient id="linear-gradient-91" x1="15.66" y1="8.33" x2="16.89" y2="8.33" xlink:href="#linear-gradient"/><linearGradient id="linear-gradient-92" x1="19.96" y1="5.47" x2="20.49" y2="5.47" xlink:href="#linear-gradient"/><linearGradient id="linear-gradient-93" x1="15.79" y1="3.6" x2="16.87" y2="3.6" xlink:href="#linear-gradient"/><linearGradient id="linear-gradient-94" x1="13.1" y1="1.62" x2="14.21" y2="1.62" xlink:href="#linear-gradient"/><linearGradient id="linear-gradient-95" x1="19.68" y1="8.21" x2="20.53" y2="8.21" xlink:href="#linear-gradient"/><linearGradient id="linear-gradient-96" x1="12.96" y1="10.39" x2="14.29" y2="10.39" xlink:href="#linear-gradient"/><linearGradient id="linear-gradient-97" x1="23.63" y1="8.17" x2="24.14" y2="8.17" xlink:href="#linear-gradient"/><linearGradient id="linear-gradient-98" x1="15.34" y1="6.5" x2="16.51" y2="6.5" xlink:href="#linear-gradient"/><linearGradient id="linear-gradient-99" x1="14.63" y1="2.38" x2="15.78" y2="2.38" xlink:href="#linear-gradient"/><linearGradient id="linear-gradient-100" x1="17.06" y1="5.81" x2="18.04" y2="5.81" xlink:href="#linear-gradient"/><linearGradient id="linear-gradient-101" x1="11.74" y1="2.02" x2="12.79" y2="2.02" xlink:href="#linear-gradient"/><linearGradient id="linear-gradient-102" x1="17.98" y1="6.2" x2="18.86" y2="6.2" xlink:href="#linear-gradient"/><linearGradient id="linear-gradient-103" x1="14.57" y1="1.45" x2="15.68" y2="1.45" xlink:href="#linear-gradient"/><linearGradient id="linear-gradient-104" x1="24.44" y1="10.73" x2="24.66" y2="10.73" xlink:href="#linear-gradient"/><linearGradient id="linear-gradient-105" x1="14.25" y1="10.96" x2="15.6" y2="10.96" xlink:href="#linear-gradient"/><linearGradient id="linear-gradient-106" x1="23.4" y1="9.89" x2="23.88" y2="9.89" xlink:href="#linear-gradient"/><linearGradient id="linear-gradient-107" x1="16.37" y1="7.03" x2="17.48" y2="7.03" xlink:href="#linear-gradient"/><linearGradient id="linear-gradient-108" x1="18.86" y1="3.94" x2="19.33" y2="3.94" xlink:href="#linear-gradient"/><linearGradient id="linear-gradient-109" x1="17.83" y1="3.51" x2="18.57" y2="3.51" xlink:href="#linear-gradient"/><linearGradient id="linear-gradient-110" x1="17.45" y1="7.5" x2="18.49" y2="7.5" xlink:href="#linear-gradient"/><linearGradient id="linear-gradient-111" x1="21.51" y1="7.05" x2="22.18" y2="7.05" xlink:href="#linear-gradient"/><linearGradient id="linear-gradient-112" x1="23.06" y1="6.76" x2="23.68" y2="6.76" xlink:href="#linear-gradient"/><linearGradient id="linear-gradient-113" x1="13.7" y1="9.04" x2="15.02" y2="9.04" xlink:href="#linear-gradient"/><linearGradient id="linear-gradient-114" x1="7.09" y1="9.76" x2="7.26" y2="9.76" xlink:href="#linear-gradient"/><linearGradient id="linear-gradient-115" x1="7.73" y1="12.13" x2="8.14" y2="12.13" xlink:href="#linear-gradient"/><linearGradient id="linear-gradient-116" x1="23.46" y1="6.16" x2="23.96" y2="6.16" xlink:href="#linear-gradient"/><linearGradient id="linear-gradient-117" x1="14.38" y1="5.92" x2="15.6" y2="5.92" xlink:href="#linear-gradient"/><linearGradient id="linear-gradient-118" x1="13.01" y1="1.95" x2="14.06" y2="1.95" xlink:href="#linear-gradient"/><linearGradient id="linear-gradient-119" x1="23.33" y1="6.5" x2="23.9" y2="6.5" xlink:href="#linear-gradient"/><linearGradient id="linear-gradient-120" x1="19.85" y1="4.25" x2="20.3" y2="4.25" xlink:href="#linear-gradient"/><linearGradient id="linear-gradient-121" x1="17.37" y1="3.26" x2="18.23" y2="3.26" xlink:href="#linear-gradient"/><linearGradient id="linear-gradient-122" x1="10.5" y1="2.66" x2="11.45" y2="2.66" xlink:href="#linear-gradient"/><linearGradient id="linear-gradient-123" x1="20.58" y1="5.6" x2="21.19" y2="5.6" xlink:href="#linear-gradient"/><linearGradient id="linear-gradient-124" x1="7.64" y1="6.37" x2="8.11" y2="6.37" xlink:href="#linear-gradient"/><linearGradient id="linear-gradient-125" x1="16.37" y1="3.99" x2="17.38" y2="3.99" xlink:href="#linear-gradient"/><linearGradient id="linear-gradient-126" x1="18.33" y1="3.74" x2="18.94" y2="3.74" xlink:href="#linear-gradient"/><linearGradient id="linear-gradient-127" x1="20.77" y1="8.43" x2="21.49" y2="8.43" xlink:href="#linear-gradient"/><linearGradient id="linear-gradient-128" x1="20.23" y1="4.35" x2="20.8" y2="4.35" xlink:href="#linear-gradient"/><linearGradient id="linear-gradient-129" x1="24.12" y1="7.45" x2="24.45" y2="7.45" xlink:href="#linear-gradient"/><linearGradient id="linear-gradient-130" x1="22.48" y1="5.23" x2="23.17" y2="5.23" xlink:href="#linear-gradient"/><linearGradient id="linear-gradient-131" x1="20.77" y1="6.98" x2="21.42" y2="6.98" xlink:href="#linear-gradient"/><linearGradient id="linear-gradient-132" x1="15.37" y1="4.88" x2="16.5" y2="4.88" xlink:href="#linear-gradient"/><linearGradient id="linear-gradient-133" x1="23.88" y1="12.22" x2="24.23" y2="12.22" xlink:href="#linear-gradient"/><linearGradient id="linear-gradient-134" x1="20.57" y1="4.39" x2="21.25" y2="4.39" xlink:href="#linear-gradient"/><linearGradient id="linear-gradient-135" x1="13.37" y1="1.36" x2="14.46" y2="1.36" xlink:href="#linear-gradient"/><linearGradient id="linear-gradient-136" x1="19.47" y1="3.13" x2="19.67" y2="3.13" xlink:href="#linear-gradient"/><linearGradient id="linear-gradient-137" x1="16.95" y1="3" x2="17.91" y2="3" xlink:href="#linear-gradient"/><linearGradient id="linear-gradient-138" x1="19.6" y1="3.19" x2="19.97" y2="3.19" xlink:href="#linear-gradient"/><linearGradient id="linear-gradient-139" x1="19.17" y1="3.05" x2="19.41" y2="3.05" xlink:href="#linear-gradient"/><linearGradient id="linear-gradient-140" x1="18.88" y1="2.95" x2="19.27" y2="2.95" xlink:href="#linear-gradient"/><linearGradient id="linear-gradient-141" x1="21.13" y1="5.67" x2="21.8" y2="5.67" xlink:href="#linear-gradient"/><linearGradient id="linear-gradient-142" x1="16.59" y1="2.72" x2="17.64" y2="2.72" xlink:href="#linear-gradient"/><linearGradient id="linear-gradient-143" x1="18.6" y1="2.84" x2="19.14" y2="2.84" xlink:href="#linear-gradient"/><linearGradient id="linear-gradient-144" x1="18.33" y1="2.72" x2="19.01" y2="2.72" xlink:href="#linear-gradient"/><linearGradient id="linear-gradient-145" x1="22.28" y1="5.44" x2="23.01" y2="5.44" xlink:href="#linear-gradient"/><linearGradient id="linear-gradient-146" x1="19.88" y1="6.8" x2="20.55" y2="6.8" xlink:href="#linear-gradient"/><linearGradient id="linear-gradient-147" x1="16.01" y1="1.71" x2="17.11" y2="1.71" xlink:href="#linear-gradient"/><linearGradient id="linear-gradient-148" x1="21.98" y1="5.58" x2="22.71" y2="5.58" xlink:href="#linear-gradient"/><linearGradient id="linear-gradient-149" x1="18.93" y1="6.54" x2="19.7" y2="6.54" xlink:href="#linear-gradient"/><linearGradient id="linear-gradient-150" x1="16.07" y1="1.54" x2="17.17" y2="1.54" xlink:href="#linear-gradient"/><linearGradient id="linear-gradient-151" x1="24.24" y1="12.05" x2="24.52" y2="12.05" xlink:href="#linear-gradient"/><linearGradient id="linear-gradient-152" x1="22.66" y1="10.02" x2="23.23" y2="10.02" xlink:href="#linear-gradient"/><linearGradient id="linear-gradient-153" x1="21.6" y1="5.66" x2="22.31" y2="5.66" xlink:href="#linear-gradient"/><linearGradient id="linear-gradient-154" x1="16.02" y1="1.91" x2="17.13" y2="1.91" xlink:href="#linear-gradient"/><linearGradient id="linear-gradient-155" x1="16.12" y1="2.17" x2="17.23" y2="2.17" xlink:href="#linear-gradient"/><linearGradient id="linear-gradient-156" x1="9.48" y1="3.49" x2="10.2" y2="3.49" xlink:href="#linear-gradient"/><linearGradient id="linear-gradient-157" x1="19.21" y1="5.26" x2="19.77" y2="5.26" xlink:href="#linear-gradient"/><linearGradient id="linear-gradient-158" x1="20.86" y1="4.38" x2="21.6" y2="4.38" xlink:href="#linear-gradient"/><linearGradient id="linear-gradient-159" x1="21.41" y1="4.09" x2="22.23" y2="4.09" xlink:href="#linear-gradient"/><linearGradient id="linear-gradient-160" x1="23.39" y1="5.74" x2="23.91" y2="5.74" xlink:href="#linear-gradient"/><linearGradient id="linear-gradient-161" x1="12.41" y1="11.36" x2="13.58" y2="11.36" xlink:href="#linear-gradient"/><linearGradient id="linear-gradient-162" x1="21.1" y1="4.33" x2="21.9" y2="4.33" xlink:href="#linear-gradient"/><linearGradient id="linear-gradient-163" x1="10.78" y1="11.75" x2="11.18" y2="11.75" xlink:href="#linear-gradient"/><linearGradient id="linear-gradient-164" x1="16.02" y1="1.74" x2="16.03" y2="1.74" xlink:href="#linear-gradient"/><linearGradient id="linear-gradient-165" x1="12.21" y1="1.69" x2="13.07" y2="1.69" xlink:href="#linear-gradient"/><linearGradient id="linear-gradient-166" x1="18.1" y1="2.6" x2="18.9" y2="2.6" xlink:href="#linear-gradient"/><linearGradient id="linear-gradient-167" x1="21.28" y1="4.23" x2="22.11" y2="4.23" xlink:href="#linear-gradient"/><linearGradient id="linear-gradient-168" x1="15.82" y1="11.27" x2="16.96" y2="11.27" xlink:href="#linear-gradient"/><linearGradient id="linear-gradient-169" x1="16.3" y1="2.45" x2="17.41" y2="2.45" xlink:href="#linear-gradient"/><linearGradient id="linear-gradient-170" x1="19.74" y1="3.23" x2="20.26" y2="3.23" xlink:href="#linear-gradient"/><linearGradient id="linear-gradient-171" x1="22.52" y1="4.66" x2="23.19" y2="4.66" xlink:href="#linear-gradient"/><linearGradient id="linear-gradient-172" x1="16.21" y1="1.41" x2="17.3" y2="1.41" xlink:href="#linear-gradient"/><linearGradient id="linear-gradient-173" x1="19.86" y1="3" x2="21.12" y2="3" xlink:href="#linear-gradient"/><linearGradient id="linear-gradient-174" x1="19.8" y1="2.32" x2="20.34" y2="2.32" xlink:href="#linear-gradient"/><linearGradient id="linear-gradient-175" x1="22.57" y1="4.97" x2="23.23" y2="4.97" xlink:href="#linear-gradient"/><linearGradient id="linear-gradient-176" x1="19.55" y1="2.09" x2="19.83" y2="2.09" xlink:href="#linear-gradient"/><linearGradient id="linear-gradient-177" x1="19.68" y1="2.2" x2="20.09" y2="2.2" xlink:href="#linear-gradient"/><linearGradient id="linear-gradient-178" x1="18.77" y1="1.84" x2="19.21" y2="1.84" xlink:href="#linear-gradient"/><linearGradient id="linear-gradient-179" x1="17.9" y1="2.47" x2="18.82" y2="2.47" xlink:href="#linear-gradient"/><linearGradient id="linear-gradient-180" x1="19.35" y1="1.99" x2="19.54" y2="1.99" xlink:href="#linear-gradient"/><linearGradient id="linear-gradient-181" x1="19.07" y1="1.91" x2="19.35" y2="1.91" xlink:href="#linear-gradient"/><linearGradient id="linear-gradient-182" x1="21.46" y1="3.93" x2="22.27" y2="3.93" xlink:href="#linear-gradient"/><linearGradient id="linear-gradient-183" x1="7.13" y1="11.17" x2="7.29" y2="11.17" xlink:href="#linear-gradient"/><linearGradient id="linear-gradient-184" x1="17.55" y1="1.91" x2="19.06" y2="1.91" xlink:href="#linear-gradient"/><linearGradient id="linear-gradient-185" x1="16.77" y1="1.28" x2="17.71" y2="1.28" xlink:href="#linear-gradient"/><linearGradient id="linear-gradient-186" x1="7.22" y1="7.81" x2="7.47" y2="7.81" xlink:href="#linear-gradient"/><linearGradient id="linear-gradient-187" x1="19.2" y1="2.23" x2="19.2" y2="2.23" xlink:href="#linear-gradient"/><linearGradient id="linear-gradient-188" x1="21.44" y1="3.71" x2="22.24" y2="3.71" xlink:href="#linear-gradient"/><linearGradient id="linear-gradient-189" x1="17.59" y1="1.78" x2="18.02" y2="1.78" xlink:href="#linear-gradient"/><linearGradient id="linear-gradient-190" x1="17.71" y1="1.34" x2="18.36" y2="1.34" xlink:href="#linear-gradient"/><linearGradient id="linear-gradient-191" x1="19.27" y1="1.77" x2="19.55" y2="1.77" xlink:href="#linear-gradient"/><linearGradient id="linear-gradient-192" x1="19.68" y1="1.96" x2="19.96" y2="1.96" xlink:href="#linear-gradient"/><linearGradient id="linear-gradient-193" x1="8.89" y1="4.41" x2="9.03" y2="4.41" xlink:href="#linear-gradient"/><linearGradient id="linear-gradient-194" x1="23.61" y1="12.32" x2="23.72" y2="12.32" xlink:href="#linear-gradient"/><linearGradient id="linear-gradient-195" x1="9.42" y1="3.85" x2="9.51" y2="3.85" xlink:href="#linear-gradient"/><linearGradient id="linear-gradient-196" x1="12.06" y1="1.9" x2="12.24" y2="1.9" xlink:href="#linear-gradient"/><linearGradient id="linear-gradient-197" x1="22.22" y1="4.18" x2="23" y2="4.18" xlink:href="#linear-gradient"/><linearGradient id="linear-gradient-198" x1="17.73" y1="2.32" x2="18.73" y2="2.32" xlink:href="#linear-gradient"/><linearGradient id="linear-gradient-199" x1="24.71" y1="9.93" x2="24.72" y2="9.93" xlink:href="#linear-gradient"/><linearGradient id="linear-gradient-200" x1="20.42" y1="2.44" x2="20.88" y2="2.44" xlink:href="#linear-gradient"/><linearGradient id="linear-gradient-201" x1="20.08" y1="2.19" x2="20.41" y2="2.19" xlink:href="#linear-gradient"/><linearGradient id="linear-gradient-202" x1="20.72" y1="3.15" x2="22.11" y2="3.15" xlink:href="#linear-gradient"/><linearGradient id="linear-gradient-203" x1="10.18" y1="3.13" x2="10.22" y2="3.13" xlink:href="#linear-gradient"/><linearGradient id="linear-gradient-204" x1="18.23" y1="1.44" x2="18.74" y2="1.44" xlink:href="#linear-gradient"/><linearGradient id="linear-gradient-205" x1="18.85" y1="1.61" x2="19.13" y2="1.61" xlink:href="#linear-gradient"/><linearGradient id="linear-gradient-206" x1="22.17" y1="3.69" x2="22.21" y2="3.69" xlink:href="#linear-gradient"/><linearGradient id="linear-gradient-207" x1="8.85" y1="4.53" x2="8.88" y2="4.53" xlink:href="#linear-gradient"/><linearGradient id="linear-gradient-208" x1="20.47" y1="2.69" x2="20.47" y2="2.69" xlink:href="#linear-gradient"/><linearGradient id="linear-gradient-209" x1="24.55" y1="8.83" x2="24.69" y2="8.83" xlink:href="#linear-gradient"/><linearGradient id="linear-gradient-210" x1="11.4" y1="2.2" x2="11.61" y2="2.2" xlink:href="#linear-gradient"/><linearGradient id="linear-gradient-211" x1="8.88" y1="4.51" x2="8.89" y2="4.51" xlink:href="#linear-gradient"/><linearGradient id="linear-gradient-212" x1="10.22" y1="3.11" x2="10.23" y2="3.11" xlink:href="#linear-gradient"/></defs><path class="cls-1" d="M-1100.89,75.41" transform="translate(-1.74 -1.02)"/><path class="cls-2" d="M16.92,16.74a.83.83,0,0,1-.07.27,1.08,1.08,0,0,1-.83.69,1.38,1.38,0,0,1-.67,0,1.15,1.15,0,0,1-.76-.6,1.47,1.47,0,0,1-.15-.58,1.45,1.45,0,0,1,.15-.74,1.15,1.15,0,0,1,.94-.62,1.56,1.56,0,0,1,.57,0,1.05,1.05,0,0,1,.77.84v0c0,.08,0,.08-.07.08h-.49s0,0-.06,0a.5.5,0,0,0-.42-.36.69.69,0,0,0-.35,0,.52.52,0,0,0-.37.39,1,1,0,0,0,0,.57.58.58,0,0,0,.55.43.74.74,0,0,0,.39-.07.5.5,0,0,0,.25-.3s0-.05,0-.05h.59Z" transform="translate(-1.74 -1.02)"/><path class="cls-2" d="M10.6,16a.35.35,0,0,0-.55-.24.23.23,0,0,0,0,.41,1.09,1.09,0,0,0,.25,0,1.57,1.57,0,0,1,.6.16.64.64,0,0,1,.38.49.72.72,0,0,1-.48.84,1.35,1.35,0,0,1-.4.08,1.75,1.75,0,0,1-.56-.05.88.88,0,0,1-.43-.27A.74.74,0,0,1,9.27,17c0-.05,0-.05,0-.05h.51s0,0,0,0a.32.32,0,0,0,.29.27.7.7,0,0,0,.38,0,.24.24,0,0,0,.18-.18.2.2,0,0,0-.11-.24.67.67,0,0,0-.19-.05l-.4,0a.9.9,0,0,1-.4-.18.7.7,0,0,1-.27-.71.68.68,0,0,1,.49-.57,1.21,1.21,0,0,1,.86,0,.71.71,0,0,1,.49.64v.05s0,0,0,0Z" transform="translate(-1.74 -1.02)"/><path class="cls-2" d="M17.25,16.44V15.25a0,0,0,0,1,0,0h1.48s0,0,0,0v.44s0,0,0,0h-.85c-.05,0-.06,0-.06.06v.33c0,.06,0,.06.06.06h.8s0,0,0,0v.44s0,0,0,0h-.79c-.07,0-.07,0-.07.07v.36c0,.05,0,.05.06.05h.86s.05,0,.05.05v.39c0,.07,0,.07-.07.07H17.34c-.09,0-.09,0-.09-.09V16.44Z" transform="translate(-1.74 -1.02)"/><path class="cls-2" d="M22.46,15.22h.94s0,0,0,0v.45s0,0-.05,0H22.8a0,0,0,0,0,0,0v1.79c0,.09,0,.09-.08.09h-.48c-.06,0-.06,0-.06-.07V15.85c0-.1,0-.09-.1-.09h-.52c-.05,0-.05,0-.05-.06a2.8,2.8,0,0,1,0-.41c0-.07,0-.07.06-.07Z" transform="translate(-1.74 -1.02)"/><path class="cls-2" d="M8.93,16.44v1.19a0,0,0,0,1,0,0H8.38c-.07,0-.07,0-.07-.08V15.27s0,0,.06,0h.5c.06,0,.06,0,.06.06v1.16Z" transform="translate(-1.74 -1.02)"/><path class="cls-2" d="M14.17,16.37a1.23,1.23,0,0,0-.41-.9,1.31,1.31,0,0,0-.87-.33,1.38,1.38,0,0,0-.69.16,1.17,1.17,0,0,0-.55.57,1.31,1.31,0,0,0,0,1,1.19,1.19,0,0,0,.84.8,1.27,1.27,0,0,0,.58,0,1.16,1.16,0,0,0,.55-.18,1.29,1.29,0,0,0,.59-1.1Zm-.75.51a.61.61,0,0,1-.43.26.78.78,0,0,1-.37,0,.66.66,0,0,1-.45-.57.49.49,0,0,0,0-.12,1.6,1.6,0,0,1,0-.23.62.62,0,0,1,.51-.46.78.78,0,0,1,.34,0,.57.57,0,0,1,.46.41A.8.8,0,0,1,13.42,16.88Z" transform="translate(-1.74 -1.02)"/><path class="cls-2" d="M20.84,16.82s.05,0,.07-.05a.65.65,0,0,0,.34-.42,1.1,1.1,0,0,0,0-.54.69.69,0,0,0-.31-.45,1,1,0,0,0-.54-.15c-.37,0-.74,0-1.11,0-.05,0-.06,0-.06.06v2.33c0,.08,0,.08.08.08h.46c.1,0,.08,0,.08-.09s0-.41,0-.61c0,0,0-.06.06-.06a.88.88,0,0,0,.23,0,.11.11,0,0,1,.11.06l.43.65a.09.09,0,0,0,.09.05h.59s0,0,.05,0Zm-.35-.43a.43.43,0,0,1-.16.05h-.42s0,0,0-.05v-.62s0,0,0,0h.42a.34.34,0,0,1,.32.26A.36.36,0,0,1,20.49,16.39Z" transform="translate(-1.74 -1.02)"/><path class="cls-2" d="M1.74,14.93l.81-.31c.63-.24,1.27-.46,1.91-.67s1.34-.41,2-.59c.45-.12.91-.24,1.37-.34.61-.14,1.22-.26,1.83-.37l1.59-.24c.66-.09,1.33-.16,2-.2l1.63-.09c.71,0,1.41,0,2.12,0s1.34.06,2,.12l1.14.12c.45.05.9.12,1.35.19s1,.18,1.55.28c.69.14,1.37.3,2.05.48,1,.26,2,.57,3,.91q.93.33,1.86.69h0s0,0-.05,0l-.48-.09-1.54-.27-1-.16-1-.14-1.26-.16-1-.11c-.54-.07-1.07-.11-1.61-.16l-.7-.06-1-.07-1-.05-1.65-.07-1,0H15.15c-.69,0-1.39,0-2.08.05l-1.46.07-1.28.09-1.63.14L7.86,14l-1.3.15-1.36.19-1.91.31L2,14.91a1.85,1.85,0,0,1-.23,0S1.75,15,1.74,14.93Z" transform="translate(-1.74 -1.02)"/><path class="cls-3" d="M14.94,1.31a2.29,2.29,0,0,1,.37,0h.38a.23.23,0,0,0,.18-.08h0a7.31,7.31,0,0,0-.81,0,.32.32,0,0,0-.25.12Z" transform="translate(-1.74 -1.02)"/><path class="cls-4" d="M15.72,1.15l.25,0a.73.73,0,0,0,.2,0l-.23,0-.38,0H15.3a.42.42,0,0,0-.19.06h0A5.42,5.42,0,0,1,15.72,1.15Z" transform="translate(-1.74 -1.02)"/><path class="cls-5" d="M16.8,1.31a2.07,2.07,0,0,0,.22,0h0s0,0,0,0l.29.07s.07,0,.13,0c-.11,0-.21-.07-.32-.09h-.11a2.26,2.26,0,0,0-.45-.1.19.19,0,0,0-.15.05Z" transform="translate(-1.74 -1.02)"/><path class="cls-6" d="M14.15,1.22l.26,0a2,2,0,0,0,.35-.07l.08,0h-.1s0,0,0,0l-.18,0-.41.07-.22.05a.21.21,0,0,0-.1,0s.07,0,.1,0Z" transform="translate(-1.74 -1.02)"/><path class="cls-7" d="M15.72,1.05h.14l.39,0a1,1,0,0,0,.29,0,3.57,3.57,0,0,0-.46,0h-.34a.32.32,0,0,0-.16,0Z" transform="translate(-1.74 -1.02)"/><path class="cls-8" d="M17,1.09a.26.26,0,0,0-.15,0s0,0-.08,0h.08A.25.25,0,0,0,17,1.09Z" transform="translate(-1.74 -1.02)"/><path class="cls-9" d="M17.27,1.18l.21.07h0s0,0,.05,0h0s0,0,0,0a.05.05,0,0,1,0,0,.56.56,0,0,0,.34.08,1.79,1.79,0,0,0-.32-.13h-.05a0,0,0,0,1,0,0h-.05a0,0,0,0,0,0,0,.54.54,0,0,0-.22,0h0a.33.33,0,0,0-.1,0A.1.1,0,0,0,17.27,1.18Z" transform="translate(-1.74 -1.02)"/><path class="cls-10" d="M12.43,10.32a.18.18,0,0,0,.09,0,.15.15,0,0,0,.11-.09L13,9.56c.05-.09,0-.14,0-.2L12.38,9a.1.1,0,0,0-.17,0l-.07.11-.35.61a.14.14,0,0,0,.05.21Z" transform="translate(-1.74 -1.02)"/><path class="cls-11" d="M10.71,6.84a.14.14,0,0,0-.05.1.09.09,0,0,0,0,.06c.14.15.3.3.46.44a.07.07,0,0,0,.1,0l.05-.05.24-.31.28-.35c.06-.07,0-.1,0-.17l-.4-.37c-.05-.05-.08-.05-.14,0l0,0L11,6.5C10.89,6.61,10.8,6.72,10.71,6.84Z" transform="translate(-1.74 -1.02)"/><path class="cls-12" d="M12.43,5.09a.24.24,0,0,0-.12.07l-.3.27-.28.27c-.07.08-.07.11,0,.18l.38.36a.1.1,0,0,0,.14,0l.06-.06.37-.38.18-.19c.06-.05.06-.09,0-.14l-.36-.34A.1.1,0,0,0,12.43,5.09Z" transform="translate(-1.74 -1.02)"/><path class="cls-13" d="M9.61,6.56l0,0-.23.33a2.7,2.7,0,0,0-.22.33.16.16,0,0,0,0,.12s0,0,0,.08l.3.37c.1.11.12.11.2,0s.15-.24.23-.35l.21-.32a.13.13,0,0,0,0-.18c-.12-.13-.23-.26-.34-.4S9.65,6.52,9.61,6.56Z" transform="translate(-1.74 -1.02)"/><path class="cls-14" d="M9,10.05c-.06-.07-.09-.06-.12,0v0c-.06.17-.12.35-.17.52a2,2,0,0,0-.06.23A.2.2,0,0,0,8.7,11l.42.39c.07.08.11.06.14,0h0c.05-.15.09-.31.15-.46s.05-.15.08-.22a.17.17,0,0,0-.06-.19Z" transform="translate(-1.74 -1.02)"/><path class="cls-15" d="M11.89,4.44a.07.07,0,0,0-.06,0,.27.27,0,0,0-.13.07l-.45.36L11.08,5c-.06.06-.06.09,0,.15s.19.24.29.36.08,0,.13,0l.06,0c.19-.17.37-.34.57-.5l.05-.06a.07.07,0,0,0,0-.11C12.08,4.67,12,4.56,11.89,4.44Z" transform="translate(-1.74 -1.02)"/><path class="cls-16" d="M11.89,10.5l-.27-.18c-.07-.06-.12,0-.16,0-.13.24-.25.49-.36.74a.12.12,0,0,0,.05.18l.26.17c.12.09.25.17.38.25s.11,0,.15,0l.06-.13c.1-.21.2-.41.29-.61a.12.12,0,0,0,0-.19Z" transform="translate(-1.74 -1.02)"/><path class="cls-17" d="M12.8,6.81A1.18,1.18,0,0,0,13,7c.05,0,.09,0,.14,0l.07-.08.36-.44a.91.91,0,0,0,.13-.16c0-.06,0-.09,0-.14L13.47,6c-.08-.06-.15-.13-.23-.18a.06.06,0,0,0-.05,0,.15.15,0,0,0-.12.07l-.42.45c-.05.06-.11.11-.15.17a.08.08,0,0,0,0,.12,1.93,1.93,0,0,0,.28.22Z" transform="translate(-1.74 -1.02)"/><path class="cls-18" d="M21.73,8a.11.11,0,0,0,0,.08s0,.08,0,.12l0,.67V9c0,.07.05.1.11.1l.31,0h.1c.07,0,.09,0,.09-.08V8.87l-.06-.54a.93.93,0,0,0,0-.24c0-.05,0-.09-.09-.09a2.55,2.55,0,0,1-.39,0S21.75,8,21.73,8Z" transform="translate(-1.74 -1.02)"/><path class="cls-19" d="M12.45,3.94l-.17.12c-.06,0-.06.07,0,.13l.23.28c.08.09.09.09.19,0l0,0c.21-.15.42-.3.64-.44l.06,0s0-.05,0-.08l-.24-.3a.09.09,0,0,0-.07,0l-.09,0Z" transform="translate(-1.74 -1.02)"/><path class="cls-20" d="M10.14,4.72c-.2.18-.39.37-.57.56l0,0a.12.12,0,0,0,0,.15.8.8,0,0,0,.08.16l.12.19s0,0,.08,0a.12.12,0,0,0,0,0A1.07,1.07,0,0,0,10,5.64c.14-.14.28-.29.42-.42a.18.18,0,0,0,.05-.07.08.08,0,0,0,0-.09c-.07-.12-.14-.24-.2-.36a0,0,0,0,0,0,0S10.16,4.7,10.14,4.72Z" transform="translate(-1.74 -1.02)"/><path class="cls-21" d="M8.62,6.7,8.8,7c0,.1.08.1.15,0a3.51,3.51,0,0,1,.27-.4l.19-.26a.18.18,0,0,0,.05-.12.14.14,0,0,0,0-.06L9.34,6l-.12-.23s0,0-.07,0l0,0c-.17.22-.34.45-.49.69A.17.17,0,0,0,8.62,6.7Z" transform="translate(-1.74 -1.02)"/><path class="cls-22" d="M11.69,7.89a2.69,2.69,0,0,0,.33.26l.08.07a.11.11,0,0,0,.17,0l0,0c.15-.22.3-.44.46-.65,0,0,0,0,0-.06a.09.09,0,0,0,0-.11l-.27-.2h0a2.65,2.65,0,0,0-.26-.21s-.07,0-.11,0a.12.12,0,0,0,0,.05c-.13.15-.25.31-.37.47l-.14.2a.1.1,0,0,0,0,.16A.39.39,0,0,0,11.69,7.89Z" transform="translate(-1.74 -1.02)"/><path class="cls-23" d="M7.89,8s0,0,0,.06a3.9,3.9,0,0,0,.19.35s0,.07.06.06.05,0,.06-.07a5.08,5.08,0,0,1,.23-.47l.13-.27a.18.18,0,0,0,0-.2,4.05,4.05,0,0,1-.21-.35c0-.06,0-.06-.08,0v0a7.05,7.05,0,0,0-.36.73A.29.29,0,0,0,7.89,8Z" transform="translate(-1.74 -1.02)"/><path class="cls-24" d="M13.35,9s0,0,.05-.06l.22-.35.21-.33c0-.07,0-.13,0-.17a2.9,2.9,0,0,0-.29-.19h0s0,0,0,0h0l-.2-.14c-.08-.06-.13-.05-.19,0l0,0c-.16.21-.3.43-.45.64l0,.07a.1.1,0,0,0,0,.11c.13.09.26.19.4.27s.15.1.22.15A.09.09,0,0,0,13.35,9Z" transform="translate(-1.74 -1.02)"/><path class="cls-25" d="M11.06,10.26a1.3,1.3,0,0,0,.08-.17.12.12,0,0,0-.05-.15L11,9.85l0,0h0v0h0l0,0h0l0,0h0a1.49,1.49,0,0,0-.14-.12l-.2-.15c-.06,0-.1,0-.14,0l0,.05-.15.28c-.06.15-.13.29-.19.43a.14.14,0,0,0,0,.18l.31.25h0l.26.2a.08.08,0,0,0,.13,0l0-.05C10.88,10.63,11,10.44,11.06,10.26Z" transform="translate(-1.74 -1.02)"/><path class="cls-26" d="M12.81,3.08c0-.08-.05-.09-.13-.05h0c-.25.12-.49.25-.74.39l-.05,0a.06.06,0,0,0,0,.09c.05.1.11.2.17.3a.05.05,0,0,0,.08,0,.2.2,0,0,0,.08,0l.7-.4.06-.05a.05.05,0,0,0,0,0s0,0,0-.06Z" transform="translate(-1.74 -1.02)"/><path class="cls-27" d="M11.09,9.37a1.18,1.18,0,0,0,.22.17s.09,0,.13,0l0,0c.12-.22.25-.44.38-.65a.3.3,0,0,0,0-.08.09.09,0,0,0,0-.13l-.24-.18-.06,0h0l-.24-.2c-.06,0-.1,0-.15,0l0,0-.33.52-.1.18a.11.11,0,0,0,0,.16C10.85,9.19,11,9.29,11.09,9.37Z" transform="translate(-1.74 -1.02)"/><path class="cls-28" d="M23.89,10.87c0-.07,0-.08-.09,0l-.25.08c-.08,0-.11,0-.11.13s0,.14,0,.21,0,.26,0,.39l0,.26c0,.07,0,.1.08.08l.26-.09a.16.16,0,0,0,.13-.15c0-.11,0-.22,0-.33l0-.52Z" transform="translate(-1.74 -1.02)"/><path class="cls-29" d="M8,10.64l-.08-.09s0,0,0,0,0,0,0,0c0,.23-.06.46-.07.73a.35.35,0,0,0,.06.17l.27.33.06.06s0,0,0,0a.29.29,0,0,0,0-.09c0-.21.05-.42.08-.63a.19.19,0,0,0,0-.19C8.13,10.86,8,10.75,8,10.64Z" transform="translate(-1.74 -1.02)"/><path class="cls-30" d="M8.59,11.36s-.07,0-.09,0l0,.16c0,.18-.05.35-.07.53a.24.24,0,0,0,0,.16.08.08,0,0,0,.09,0L9,12.17a.06.06,0,0,0,.05-.06.83.83,0,0,1,0-.15A.17.17,0,0,0,9,11.78Z" transform="translate(-1.74 -1.02)"/><path class="cls-31" d="M7.76,9.73c.06-.24.13-.48.21-.71A.43.43,0,0,0,8,8.9s0-.09,0-.13a2.59,2.59,0,0,1-.19-.33s0,0,0,0,0,0,0,.06a6.61,6.61,0,0,0-.22.76.29.29,0,0,0,0,.16c.07.14.14.27.22.4s0,0,0,0,0,0,0,0A0,0,0,0,0,7.76,9.73Z" transform="translate(-1.74 -1.02)"/><path class="cls-32" d="M9.62,10.08s.06,0,.09,0a.14.14,0,0,0,0-.08c.1-.22.21-.44.32-.66l0-.06a.14.14,0,0,0,0-.16l-.18-.17h0v0h0L9.6,8.66s-.08,0-.11,0a.43.43,0,0,0,0,.07c0,.09-.09.17-.13.26s-.14.29-.2.43a.16.16,0,0,0,0,.21l.22.21a.07.07,0,0,0,0,0h0v0h0l0,0A.75.75,0,0,0,9.62,10.08Z" transform="translate(-1.74 -1.02)"/><path class="cls-33" d="M10,6.26v0c.1.11.18.23.29.33h0a.1.1,0,0,0,.05,0h0s0,0,0,0h0v0h0v0h0l0,0h0l0,0h0L11,6l0-.05a.08.08,0,0,0,0-.11,1.54,1.54,0,0,0-.17-.19l-.05-.06h0v0h0l-.1-.14a.05.05,0,0,0-.08,0l-.05,0c-.19.2-.38.39-.56.6S10,6.16,10,6.26Z" transform="translate(-1.74 -1.02)"/><path class="cls-34" d="M14.7,4.4c-.08.06-.08.09,0,.15l.33.26a.1.1,0,0,0,.14,0,.32.32,0,0,0,.12-.11h0l0,0h0l0,0h0l.41-.35s0,0,0,0,0-.06,0-.09L15.58,4s0,0,0,0h0s-.05,0-.07-.06a.11.11,0,0,0-.14,0l0,0L15,4.16Z" transform="translate(-1.74 -1.02)"/><path class="cls-35" d="M13.54,4.2l0,0L13,4.59a.93.93,0,0,0-.15.13c-.06,0-.06.07,0,.12l.34.33c.06,0,.08,0,.14,0h0l.06,0h0v0h0a0,0,0,0,1,0,0h0L13.54,5l.37-.3L14,4.61a.07.07,0,0,0,0-.11l-.14-.12-.11-.1h0a0,0,0,0,1,0,0h0l0,0h0C13.66,4.17,13.63,4.16,13.54,4.2Z" transform="translate(-1.74 -1.02)"/><path class="cls-36" d="M10.11,4.44a.1.1,0,0,0,0-.07c0-.1-.06-.2-.09-.3s0-.05,0,0a.87.87,0,0,0-.11.09c-.14.11-.27.25-.41.38a.65.65,0,0,0-.16.17.19.19,0,0,0,0,.08v0c0,.08,0,.15.05.22s.05.16.17,0A6.5,6.5,0,0,1,10,4.53Z" transform="translate(-1.74 -1.02)"/><path class="cls-37" d="M9,5.08a.22.22,0,0,0-.1.09,7.26,7.26,0,0,0-.46.63A.24.24,0,0,0,8.37,6s0,0,0,.08,0,.12,0,.17,0,0,.07,0l.05-.06a5.08,5.08,0,0,1,.38-.53l.11-.15a.12.12,0,0,0,0-.13s0-.1,0-.16A.8.8,0,0,1,9,5.08Z" transform="translate(-1.74 -1.02)"/><path class="cls-38" d="M8.76,7.86h0c-.1.18-.19.36-.28.54l-.09.2a.19.19,0,0,0,0,.18,2.75,2.75,0,0,0,.22.26,1.34,1.34,0,0,0,.11.14c.07.09.1.11.16,0s.18-.39.28-.58a1.09,1.09,0,0,1,.08-.15.15.15,0,0,0,0-.16L9.1,8.12h0C9,8,9,7.94,8.88,7.85S8.81,7.79,8.76,7.86Z" transform="translate(-1.74 -1.02)"/><path class="cls-39" d="M12.62,2.55a0,0,0,0,0,0,0,.29.29,0,0,0-.1,0l-.69.31-.1.06a.08.08,0,0,0,0,.07,1.11,1.11,0,0,0,.07.26,0,0,0,0,0,.06,0l.12-.06a6.45,6.45,0,0,1,.59-.29l.15-.08s0,0,0-.1A1.05,1.05,0,0,1,12.62,2.55Z" transform="translate(-1.74 -1.02)"/><path class="cls-40" d="M10.27,11.16l-.36-.29c-.07-.06-.11,0-.14,0s-.16.45-.24.68a.19.19,0,0,0,.07.21,1.56,1.56,0,0,1,.2.16A.14.14,0,0,0,10,12h0a.15.15,0,0,0,.09,0h0s.05,0,.08,0l.12,0s.05,0,.06,0,.11-.28.16-.42a.12.12,0,0,0,0-.16A1,1,0,0,0,10.27,11.16Z" transform="translate(-1.74 -1.02)"/><polygon class="cls-41" points="19.99 9.52 19.99 9.52 19.99 9.52 19.99 9.52"/><path class="cls-42" d="M22.29,9.51l-.39,0c-.1,0-.13,0-.13.1l0,.45c0,.11,0,.21,0,.32a.33.33,0,0,0,0,.14h0s0,0,0,0,0,0,0,0h0l0,0,.5,0a.08.08,0,0,0,.09-.06.15.15,0,0,0,0-.09c0-.11,0-.22,0-.33a4,4,0,0,0,0-.49C22.41,9.53,22.38,9.51,22.29,9.51Z" transform="translate(-1.74 -1.02)"/><path class="cls-43" d="M15.79,2.51c-.27.06-.53.14-.79.22l-.07,0s0,0,0,.06l.18.22a.07.07,0,0,0,.06,0l.08,0c.2-.08.4-.16.6-.22L16,2.76c.06,0,.06,0,0-.08l-.1-.12A.1.1,0,0,0,15.79,2.51Z" transform="translate(-1.74 -1.02)"/><path class="cls-44" d="M8.48,10.3a4.42,4.42,0,0,1,.15-.48.17.17,0,0,0,0-.2.81.81,0,0,0-.09-.1.7.7,0,0,0-.08-.1,1.84,1.84,0,0,1-.17-.22s-.06,0-.09,0v0c-.08.25-.16.49-.22.74a.19.19,0,0,0,0,.15.7.7,0,0,0,.13.16h0a1.81,1.81,0,0,0,.25.3s0,0,.06,0,0,0,0-.05A2,2,0,0,1,8.48,10.3Z" transform="translate(-1.74 -1.02)"/><path class="cls-45" d="M14,2.06h0c-.28.07-.56.14-.84.23l-.06,0a.07.07,0,0,0,0,.07,1.39,1.39,0,0,0,.06.19s0,.05.07,0l.1,0c.23-.09.46-.16.69-.23l.13,0s0,0,0-.07a.75.75,0,0,1,0-.16A.05.05,0,0,0,14,2.06Z" transform="translate(-1.74 -1.02)"/><path class="cls-46" d="M24.05,10.12a.2.2,0,0,0,0,.07c0,.05,0,.06.07,0l.09-.07c.13-.09.14-.12.13-.27h0c0-.21,0-.43-.08-.64a.65.65,0,0,0,0-.2L24,9.19a.05.05,0,0,0,0,.05v.09A6.82,6.82,0,0,1,24.05,10.12Z" transform="translate(-1.74 -1.02)"/><path class="cls-47" d="M8.08,6.35v0a7.85,7.85,0,0,0-.38.77.33.33,0,0,0,0,.22.94.94,0,0,1,0,.16.84.84,0,0,0,.06.14.33.33,0,0,0,.06-.1c.1-.23.21-.46.33-.68a.36.36,0,0,0,0-.09.17.17,0,0,0,0-.14,1.37,1.37,0,0,1-.07-.29s0,0,0,0S8.09,6.34,8.08,6.35Z" transform="translate(-1.74 -1.02)"/><path class="cls-48" d="M11.48,3.8c0-.06-.05-.06-.1,0l-.17.11c-.15.09-.29.21-.43.31l-.12.1c-.07,0-.07.09,0,.16a2.91,2.91,0,0,0,.17.3c0,.06.05.07.12,0h0s0,0,0,0h0s0,0,0,0h0l0,0h0l0,0h0l0,0h0l0,0h0s0,0,0,0h0s0,0,0,0l.38-.29,0,0s0-.06,0-.12S11.53,3.9,11.48,3.8Z" transform="translate(-1.74 -1.02)"/><path class="cls-49" d="M10.3,8.72s.07,0,.11,0l0-.05c.13-.23.27-.45.42-.67l0,0c0-.07,0-.11,0-.16l-.13-.11-.3-.3c-.06-.06-.1,0-.15,0l0,0c-.11.15-.21.31-.32.47s-.09.14-.13.22a.12.12,0,0,0,0,.16,4.61,4.61,0,0,0,.4.37A.2.2,0,0,0,10.3,8.72Z" transform="translate(-1.74 -1.02)"/><path class="cls-50" d="M17.28,9.36a.35.35,0,0,0,.14.06h0a.76.76,0,0,0,.16.06.09.09,0,0,0,.12,0s0,0,0-.06c.08-.23.17-.46.25-.7s0-.19-.13-.23h0a.71.71,0,0,0-.18-.08h0s0,0,0,0a.59.59,0,0,0-.14-.06h0a.19.19,0,0,0-.1,0,.09.09,0,0,0-.13,0s0,0,0,.06c-.1.23-.19.45-.29.67s0,.18.1.23h0l0,0a.47.47,0,0,0,.15.06h0l0,0Z" transform="translate(-1.74 -1.02)"/><path class="cls-51" d="M24.37,10.59a.22.22,0,0,0,0-.08s-.05,0-.07,0l-.14.1a.16.16,0,0,0-.09.15c0,.12,0,.24,0,.35a2.83,2.83,0,0,1,0,.29c0,.08,0,.16,0,.25s0,0,.05,0l.18-.13a.22.22,0,0,0,.09-.16A7.7,7.7,0,0,0,24.37,10.59Z" transform="translate(-1.74 -1.02)"/><path class="cls-52" d="M23.12,11h-.05S23,11,23,11a2.09,2.09,0,0,0-.25,0c-.07,0-.1,0-.11.09a.24.24,0,0,0,0,.08c0,.23-.05.46-.09.68a.77.77,0,0,0,0,.15c0,.06,0,.07.08.07a2.56,2.56,0,0,0,.39,0c.1,0,.13,0,.14-.14a.71.71,0,0,0,0-.21c0-.18,0-.36.06-.54a.49.49,0,0,0,0-.12C23.2,11,23.18,11,23.12,11Z" transform="translate(-1.74 -1.02)"/><path class="cls-53" d="M7.52,10l-.15-.27a.66.66,0,0,0,0,.23c0,.18,0,.36,0,.53a.58.58,0,0,0,0,.26,3.07,3.07,0,0,0,.17.31s0,0,0,0a.1.1,0,0,0,0-.07v-.19c0-.15,0-.31.06-.47a.32.32,0,0,0-.06-.27Z" transform="translate(-1.74 -1.02)"/><path class="cls-54" d="M21.36,9.43h0s-.06,0-.08,0h0s0,0-.06,0l-.2,0-.15,0a.09.09,0,0,0-.11.07.09.09,0,0,1,0,.05c0,.14,0,.28-.05.42a2.51,2.51,0,0,0,0,.27s0,0,0,.06v0a.17.17,0,0,0,0,.1h0s0,.05.07.06a1.38,1.38,0,0,0,.2,0,3.07,3.07,0,0,0,.42.07s.06,0,.08,0a.11.11,0,0,0,0-.08l.06-.59a1.62,1.62,0,0,0,0-.22A.11.11,0,0,0,21.36,9.43Z" transform="translate(-1.74 -1.02)"/><path class="cls-55" d="M15,3.48c-.07-.07-.09-.07-.18,0s-.27.14-.4.21l-.32.19c-.06,0-.06.07,0,.12l.27.26c.06,0,.08,0,.16,0h0l0,0h0l.05,0h0s0,0,0,0h0l0,0h0s0,0,0,0h0s0,0,0,0h0l.38-.25a.47.47,0,0,0,.09-.06c.05,0,.05,0,0-.1Z" transform="translate(-1.74 -1.02)"/><polygon class="cls-56" points="12.83 3.16 12.83 3.16 12.83 3.16 12.83 3.16"/><path class="cls-57" d="M11.71,2.73l0,0c.23-.11.47-.22.71-.31l.08,0c.05,0,.08-.06.07-.12s0-.07,0-.11,0-.06,0-.05l-.06,0-.45.17-.33.15a.14.14,0,0,0-.08.1l0,.13C11.63,2.75,11.64,2.76,11.71,2.73Z" transform="translate(-1.74 -1.02)"/><path class="cls-58" d="M10.45,3.48l.18-.12c.17-.12.35-.23.52-.33s.09,0,.09-.1a2.42,2.42,0,0,1,0-.25.33.33,0,0,0-.12,0l-.25.15-.42.28a.18.18,0,0,0-.08.09,1,1,0,0,0,0,.24s0,0,0,0Z" transform="translate(-1.74 -1.02)"/><path class="cls-59" d="M19,9.83l.15-.57a1.18,1.18,0,0,0,0-.2.11.11,0,0,0-.08-.15l-.09,0-.15-.05-.22-.07-.15-.06a.1.1,0,0,0-.13.06.14.14,0,0,0,0,.06c-.08.23-.15.46-.23.69s0,.19.13.23a.49.49,0,0,0,.17.06.9.9,0,0,0,.23.08l.2.07c.07,0,.11,0,.13-.06A.14.14,0,0,0,19,9.83Z" transform="translate(-1.74 -1.02)"/><path class="cls-60" d="M15.5,2.06c.12,0,.12,0,.09-.13s0-.09-.11-.09l-.21,0-.61.08-.12,0s0,0,0,.06,0,.09,0,.14a.06.06,0,0,0,.08,0h0C14.94,2.14,15.22,2.09,15.5,2.06Z" transform="translate(-1.74 -1.02)"/><path class="cls-61" d="M9.73,4.07,10,3.85A.13.13,0,0,0,10,3.71c0-.06,0-.11,0-.17s0,0,0,0a.83.83,0,0,0-.15.11c-.18.16-.36.31-.52.48a.44.44,0,0,0-.08.11,1,1,0,0,0,0,.3.28.28,0,0,0,.08-.06A4.59,4.59,0,0,1,9.73,4.07Z" transform="translate(-1.74 -1.02)"/><path class="cls-62" d="M19.05,8.43l.19.07a.09.09,0,0,0,.11-.05s0,0,0-.07c0-.18.07-.37.11-.56l0-.2c0-.07,0-.1-.08-.13a.88.88,0,0,0-.23-.07A.75.75,0,0,0,19,7.35l-.12,0a.07.07,0,0,0-.09,0,.09.09,0,0,0,0,.07.83.83,0,0,0,0,.15c-.06.19-.11.39-.17.58a.11.11,0,0,0,0,.13l0,0h0a.28.28,0,0,0,.13,0s0,0,0,0h0A.9.9,0,0,0,19.05,8.43Z" transform="translate(-1.74 -1.02)"/><path class="cls-63" d="M15.17,8.35h0a.08.08,0,0,0,.11,0,.21.21,0,0,0,0-.06l.39-.68c0-.09,0-.14-.07-.18l0,0h0s0,0,0,0h0l0,0h0a.7.7,0,0,0-.17-.09.6.6,0,0,0-.15-.09.57.57,0,0,0-.13-.08h0a.13.13,0,0,0-.15.07l-.3.45c-.05.08-.1.15-.14.23s0,.12,0,.16a.3.3,0,0,0,.11.06.39.39,0,0,0,.14.08.87.87,0,0,0,.18.11,1.4,1.4,0,0,0,.17.09Z" transform="translate(-1.74 -1.02)"/><path class="cls-64" d="M7.31,8.29c0,.1,0,.2-.07.3A1,1,0,0,0,7.32,9a0,0,0,0,0,0,0s0,0,0-.07a5.41,5.41,0,0,1,.19-.69.42.42,0,0,0,0-.31c0-.08,0-.17-.07-.25s0,0,0,0C7.41,7.93,7.35,8.11,7.31,8.29Z" transform="translate(-1.74 -1.02)"/><path class="cls-65" d="M20.38,9.36c0-.07,0-.1-.08-.12a.67.67,0,0,0-.19-.05h0s0,0-.05,0l-.16,0-.21-.06a.08.08,0,0,0-.09,0s0,0,0,.07c-.05.25-.11.5-.17.75,0,0,0,0,0,.07s0,.09.09.11a.86.86,0,0,0,.23.06.61.61,0,0,0,.18.05,1.55,1.55,0,0,0,.23.06c.08,0,.12,0,.15-.09a.11.11,0,0,1,0,0c0-.19.06-.39.1-.58A1.49,1.49,0,0,0,20.38,9.36Z" transform="translate(-1.74 -1.02)"/><path class="cls-66" d="M14.13,2.48a1.12,1.12,0,0,0-.26.08.38.38,0,0,0-.13.15s0,0,0,0l.11-.11h0l-.57.21,0,0s0,0,0,.07.09.16.14.24.05.05.1,0l.24-.1h0s0,0,0,0h0s0,0,0,0h0l0,0,.47-.18h0s0,0,0-.06l-.11-.2S14.18,2.47,14.13,2.48Z" transform="translate(-1.74 -1.02)"/><path class="cls-67" d="M16,2.93l-.61.25,0,0s-.05,0,0,.07l.21.21a.11.11,0,0,0,.13,0,.59.59,0,0,0,.17-.1h0a1.36,1.36,0,0,0,.24-.13.59.59,0,0,0,.14-.06l.16-.08s0,0,0-.07l-.16-.14c0-.05-.06-.05-.11,0l-.13,0Z" transform="translate(-1.74 -1.02)"/><path class="cls-68" d="M15.89,10.27c.1-.2.19-.39.28-.59a1.22,1.22,0,0,0,.07-.17.1.1,0,0,0,0-.14.15.15,0,0,0-.07,0L16,9.26l-.19-.09-.06,0h0l0,0h0l-.12-.06c-.09-.05-.14,0-.18,0-.13.25-.26.49-.38.74-.05.09,0,.14.06.18l.06,0h0l.1,0h0s0,0,0,0a.19.19,0,0,0,.09,0l.21.11h0l.11.05h0s0,0,0,0,.12,0,.15,0A.05.05,0,0,0,15.89,10.27Z" transform="translate(-1.74 -1.02)"/><path class="cls-69" d="M23.31,7.32a2.67,2.67,0,0,0-.09-.26A3.12,3.12,0,0,0,23,6.64.75.75,0,0,0,23,6.46c0-.06,0-.06-.1,0l-.13,0c-.07,0-.08,0-.05.1a3.05,3.05,0,0,0,.13.32s0,0,0,0h0l0,0h0a0,0,0,0,1,0,0h0a0,0,0,0,0,0,0h0a1.9,1.9,0,0,0,.12.36v0s0,0,.1,0l.18-.06C23.33,7.39,23.33,7.38,23.31,7.32Z" transform="translate(-1.74 -1.02)"/><path class="cls-70" d="M24.06,7.8c.06.19.12.38.17.56a.11.11,0,0,0,0,.08.33.33,0,0,0,.1-.34q-.11-.37-.24-.75a.14.14,0,0,0-.05-.08.63.63,0,0,1-.07.12.17.17,0,0,0,0,.17A2.25,2.25,0,0,1,24.06,7.8Z" transform="translate(-1.74 -1.02)"/><path class="cls-71" d="M14,7.66h0l0,0,.06,0h0s0,0,0,0,.07-.06.09-.09L14.63,7,14.7,7a.09.09,0,0,0,0-.14l-.11-.07a1,1,0,0,0-.17-.1,1.59,1.59,0,0,0-.21-.15.12.12,0,0,0-.19,0l0,0-.29.36-.2.25a.1.1,0,0,0,0,.16,3.62,3.62,0,0,0,.32.22.57.57,0,0,0,.13.08h0Z" transform="translate(-1.74 -1.02)"/><path class="cls-72" d="M23.43,9l.21-.07c.07,0,.08,0,.07-.11a.13.13,0,0,0,0-.06c0-.11,0-.23-.07-.34a1.17,1.17,0,0,0-.07-.25h0a1,1,0,0,0-.07-.25s0,0-.08,0l-.19,0c-.07,0-.09,0-.07.12l.12.54s0,0,0,.06h0a2.5,2.5,0,0,0,0,.29C23.35,9,23.37,9,23.43,9Z" transform="translate(-1.74 -1.02)"/><path class="cls-73" d="M22.76,7.54s.06,0,.06-.08l0,0L22.68,7a2,2,0,0,0-.08-.22,1,1,0,0,0-.08-.21s0-.07-.08-.06l-.24,0s-.05,0-.05,0,0,0,0,.07a1.55,1.55,0,0,1,.07.23l.09.3s0,0,0,0v0s0,0,0,.05h0a.94.94,0,0,0,0,.16c0,.07,0,.08.12.08Z" transform="translate(-1.74 -1.02)"/><path class="cls-74" d="M14.39,3s-.05,0-.07,0h0c-.23.09-.46.19-.68.3l0,0s0,.05,0,.09l.21.25c0,.06.07.06.14,0l.19-.1h0l0,0h0a.25.25,0,0,1,.09,0h0l0,0h0s0,0,0,0l.38-.19c.06,0,.06,0,0-.1s-.11-.14-.17-.2S14.46,2.93,14.39,3Z" transform="translate(-1.74 -1.02)"/><path class="cls-75" d="M14.5,1.71a.09.09,0,0,0,0,.05c0,.07,0,.08.08.08l.37,0a4.55,4.55,0,0,1,.52,0c.11,0,.11,0,.11-.13s0,0,0,0h0c-.24,0-.48,0-.71,0l-.22,0A.07.07,0,0,0,14.5,1.71Z" transform="translate(-1.74 -1.02)"/><path class="cls-76" d="M16.56,5.8h0a.2.2,0,0,0,.09.05.09.09,0,0,0,.11,0l0-.06.36-.55c.08-.13.07-.14-.06-.2l0,0h0s0,0,0,0h0l-.18-.11c-.13-.09-.16-.08-.25,0l0,0-.29.36-.12.15c0,.06,0,.09,0,.12a.71.71,0,0,0,.15.08.27.27,0,0,0,.1.06h0l0,0h0s0,0,0,0h0Z" transform="translate(-1.74 -1.02)"/><path class="cls-77" d="M14.21,4.8a1.67,1.67,0,0,0-.12.23s0,0,0,0a.09.09,0,0,1,0,0,.14.14,0,0,0,.08-.14s0,0,0,0c-.2.17-.4.34-.59.52l0,.06s0,.06,0,.09.22.19.34.27.06,0,.08.06.11,0,.17,0l0,0c.16-.18.33-.35.5-.51l.05-.06s0-.08,0-.12l-.36-.28C14.3,4.76,14.28,4.76,14.21,4.8Z" transform="translate(-1.74 -1.02)"/><polygon class="cls-78" points="13.43 4.4 13.43 4.4 13.43 4.4 13.43 4.4"/><path class="cls-79" d="M21.19,11a1.88,1.88,0,0,0-.33,0h-.08s0,0-.06,0l-.11,0a.1.1,0,0,0-.12.06s0,.05,0,.07c-.05.24-.1.48-.16.71s0,.08.05.08h0a2,2,0,0,0,.35.05s.06,0,.09,0h0l.25,0s0,0,.06-.05q.09-.37.15-.75C21.32,11,21.28,11,21.19,11Z" transform="translate(-1.74 -1.02)"/><path class="cls-80" d="M24.37,9v0c0,.23.07.47.09.7a.23.23,0,0,0,0,.11.76.76,0,0,0,.12-.19.25.25,0,0,0,0-.17c0-.12,0-.24,0-.36a3.69,3.69,0,0,0-.08-.46s0,0,0,0a.53.53,0,0,1-.06.1A.27.27,0,0,0,24.37,9Z" transform="translate(-1.74 -1.02)"/><path class="cls-81" d="M19.49,4.46l.2.07c.06,0,.08,0,.08-.06s0-.17,0-.26a.77.77,0,0,0,0-.15,1.55,1.55,0,0,0,0-.22.1.1,0,0,0-.08-.09l-.12,0c-.06,0-.07,0-.08.06v0c0,.18,0,.35-.05.52S19.4,4.43,19.49,4.46Z" transform="translate(-1.74 -1.02)"/><path class="cls-82" d="M8.7,5.17l.21-.26A.5.5,0,0,0,9,4.78s0-.11,0-.16,0,0,0-.08H9c-.18.22-.34.44-.51.67a.81.81,0,0,0-.11.43.09.09,0,0,0,.06-.06Z" transform="translate(-1.74 -1.02)"/><path class="cls-83" d="M18.75,5.42l.14.06c.05,0,.07,0,.09,0a.14.14,0,0,0,0-.06c0-.11.05-.22.08-.32l.06-.29c0-.07,0-.09-.07-.12a.67.67,0,0,0-.15-.06l-.12,0s-.07,0-.09,0a.08.08,0,0,0,0,0l-.21.56c0,.11,0,.13.08.17h0a.35.35,0,0,0,.14.06h0Z" transform="translate(-1.74 -1.02)"/><path class="cls-84" d="M7.58,11.81a.66.66,0,0,0-.12-.41,2.15,2.15,0,0,1-.14-.26h0s0,0,0,0c0,.17,0,.33.05.49a1.3,1.3,0,0,0,.16.54,1.36,1.36,0,0,0,.12.17.31.31,0,0,0,0-.1C7.61,12.14,7.59,12,7.58,11.81Z" transform="translate(-1.74 -1.02)"/><path class="cls-85" d="M18.75,10.38h0s0,0,0,0l-.16,0h0l-.1,0a1.06,1.06,0,0,0-.19-.06.85.85,0,0,0-.17-.06H18a.12.12,0,0,0-.1.1c-.07.17-.13.35-.2.52l-.09.26a.11.11,0,0,0,.05.15l.14.05h0a.29.29,0,0,0,.13,0,.28.28,0,0,0,.13,0l.19.07.13,0a.11.11,0,0,0,.13-.07l0,0c0-.15.09-.29.14-.44l.1-.34A.1.1,0,0,0,18.75,10.38Z" transform="translate(-1.74 -1.02)"/><path class="cls-86" d="M23,8.26A.86.86,0,0,0,23,8c0-.06,0-.07-.1-.06l-.29,0s-.06,0-.06.05,0,0,0,.06c0,.26.08.52.1.79,0,0,0,.1.05.14s0,0,.05,0L23,9c.09,0,.11,0,.09-.13s0-.25-.05-.37A2.14,2.14,0,0,0,23,8.26Z" transform="translate(-1.74 -1.02)"/><path class="cls-87" d="M18.07,5.11l0,0c.08,0,.11,0,.15,0h0c.08-.19.16-.38.25-.56s0-.13-.07-.14l0,0h0a1.11,1.11,0,0,0-.19-.09c-.07,0-.09,0-.13,0l0,0c-.1.17-.21.34-.32.51l0,0s0,.06,0,.09l.1,0h0a.66.66,0,0,0,.19.09Z" transform="translate(-1.74 -1.02)"/><path class="cls-88" d="M17.42,9.91l0,0-.12-.05a.76.76,0,0,0-.16-.06h0l0,0-.21-.09-.08,0a.11.11,0,0,0-.14.05l0,.05c-.06.16-.13.32-.2.47l-.12.27c0,.09,0,.14.06.18l.09,0a.71.71,0,0,0,.18.08h0s0,0,0,0h0l.15.06.15.06,0,0c.12.05.17,0,.22-.09s.19-.49.29-.74c0-.1,0-.15-.1-.18Z" transform="translate(-1.74 -1.02)"/><path class="cls-89" d="M22.29,11c-.18,0-.36,0-.55,0a.08.08,0,0,0-.1.07.29.29,0,0,0,0,.09l-.06.34c0,.13,0,.25-.07.38s0,0,0,0l.32.05.28,0c.09,0,.1,0,.11-.08v0l.09-.57a1.94,1.94,0,0,0,0-.24S22.34,11.05,22.29,11Z" transform="translate(-1.74 -1.02)"/><path class="cls-90" d="M17.53,4.74a0,0,0,0,0,0,0c.12-.17.24-.33.35-.5l0,0s0-.06,0-.09L17.71,4c-.13-.09-.14-.09-.25,0l0,0c-.09.08-.17.18-.26.27a1,1,0,0,0-.13.16s0,.06,0,.09l.14.08.19.1C17.45,4.8,17.48,4.8,17.53,4.74Z" transform="translate(-1.74 -1.02)"/><path class="cls-91" d="M20,10.73a1.05,1.05,0,0,0-.24-.06.84.84,0,0,0-.24-.06h-.05l-.12,0c-.1,0-.15,0-.18.09-.07.27-.15.53-.23.8,0,.09,0,.13.09.15s0,0,.05,0h0a.93.93,0,0,0,.29.05h.17l.24,0c.08,0,.08,0,.1-.06.06-.23.12-.45.17-.67a.79.79,0,0,0,0-.13A.1.1,0,0,0,20,10.73Z" transform="translate(-1.74 -1.02)"/><path class="cls-92" d="M11.2,3.18a.78.78,0,0,0-.15.1h0c-.2.13-.4.26-.59.4a.15.15,0,0,0,0,.14,2.33,2.33,0,0,0,.07.25s0,0,.08,0l0,0,.25-.19h0s0,0,0,0h0s0,0,0,0h0l0,0h0l.38-.25,0,0a.08.08,0,0,0,0-.08l-.06-.24C11.26,3.17,11.24,3.16,11.2,3.18Z" transform="translate(-1.74 -1.02)"/><path class="cls-93" d="M15.84,8.7a.2.2,0,0,0,.09.05l.16.08h0a.18.18,0,0,0,.09,0l.13.07h0c.07,0,.11,0,.15-.06s.14-.3.2-.45a2.59,2.59,0,0,0,.14-.29c0-.08,0-.12-.06-.16l0,0h0l-.1,0-.13-.07-.09,0s0,0,0,0h0a.34.34,0,0,0-.12-.06l-.06,0a.1.1,0,0,0-.14,0l0,.06-.2.36c-.06.11-.12.21-.17.32s0,.13.05.17Z" transform="translate(-1.74 -1.02)"/><path class="cls-94" d="M20,5.8s0,.06.06.06h.06l.28.08c.1,0,.11,0,.11-.09a0,0,0,0,0,0,0c0-.14,0-.28-.05-.43a1.52,1.52,0,0,0,0-.21c0-.12,0-.16-.14-.17H20.2L20,5C20,5,20,5,20,5a.91.91,0,0,0,0,.17v.54A.13.13,0,0,0,20,5.8Z" transform="translate(-1.74 -1.02)"/><path class="cls-95" d="M16.52,3.24l-.2.11c-.17.08-.33.18-.49.27a0,0,0,0,1,0,0s0,0,0,.08.19.16.29.22.07,0,.1,0a1.46,1.46,0,0,0,.24-.17h0s0,0,0,0h0l.34-.23,0,0a0,0,0,0,0,0-.06l-.11-.08a0,0,0,0,1,0,0h0l0,0h0A.11.11,0,0,0,16.52,3.24Z" transform="translate(-1.74 -1.02)"/><path class="cls-96" d="M13.58,1.7,14,1.62s.07,0,.09,0a1.1,1.1,0,0,0,.09-.14.16.16,0,0,0-.07,0l-.35.05-.51.11c-.1,0-.13.12-.18.21l.1,0Z" transform="translate(-1.74 -1.02)"/><path class="cls-97" d="M20.15,8.75l.16,0c.12,0,.14,0,.16-.11v0l0-.29c0-.12,0-.25,0-.37s0,0,0-.07-.06-.14-.13-.14h-.09a.06.06,0,0,0,0,0,.58.58,0,0,0-.14,0,1.17,1.17,0,0,0-.2-.06c-.06,0-.09,0-.11.07s0,.09,0,.13c0,.23-.07.45-.11.68a.14.14,0,0,0,0,.12.33.33,0,0,0,.14,0l.12,0s0,0,.05,0h0Z" transform="translate(-1.74 -1.02)"/><path class="cls-98" d="M14.2,10.09,14.06,10,14,10l-.11-.06a.83.83,0,0,0-.16-.09.57.57,0,0,0-.13-.08.11.11,0,0,0-.17,0s0,0,0,0l-.36.67c-.07.12-.05.18.07.24h0a.24.24,0,0,0,.11.06.54.54,0,0,0,.18.11h0l0,0,.08,0a.19.19,0,0,0,.09,0h0a.31.31,0,0,0,.13.06c.07,0,.11,0,.15-.06l.38-.74C14.31,10.19,14.29,10.14,14.2,10.09Z" transform="translate(-1.74 -1.02)"/><path class="cls-99" d="M24.08,8.64a.11.11,0,0,0,.05-.14.85.85,0,0,0,0-.17c0-.13-.07-.27-.12-.4a1.82,1.82,0,0,0-.12-.35l-.18.13s0,0,0,.09.07.24.1.35,0,0,0,0,0,0,0,0,0,0,0,0h0s0,0,0,.05,0,0,0,0,0,.17.05.25a.65.65,0,0,0,0,.13s0,0,.07,0Z" transform="translate(-1.74 -1.02)"/><path class="cls-100" d="M15.54,6.84a.75.75,0,0,0,.15.09l.14.08.11.06s.08,0,.12,0L16.11,7c.11-.19.22-.38.34-.56l.06-.11s0-.07,0-.1a.34.34,0,0,0-.12-.06.41.41,0,0,0-.13-.08L16.09,6,16,6s0,0,0,0h0l0,0h0a.23.23,0,0,0-.11.08l-.43.6,0,0c0,.06,0,.09,0,.13Z" transform="translate(-1.74 -1.02)"/><path class="cls-101" d="M15.61,2.15l-.35.06h0l-.52.11-.05,0s0,0,0,.05a1.18,1.18,0,0,0,.11.19.06.06,0,0,0,.08,0c.11,0,.22,0,.33-.09h.06l.51-.11h0s0,0,0-.06l-.08-.12A.07.07,0,0,0,15.61,2.15Z" transform="translate(-1.74 -1.02)"/><path class="cls-102" d="M17.73,6.26v0l.18-.39c0-.08.07-.15.1-.23s0-.07,0-.12h0s0,0,0,0l0,0h0a.35.35,0,0,0-.15-.07.55.55,0,0,0-.15-.08c-.09,0-.13,0-.18,0L17.09,6a.08.08,0,0,0,0,0s0,.08,0,.1l.13.06h0l0,0,.13.06a.8.8,0,0,0,.16.08C17.65,6.36,17.68,6.35,17.73,6.26Z" transform="translate(-1.74 -1.02)"/><path class="cls-103" d="M12,2.19,12.59,2a.21.21,0,0,0,.1-.06l.1-.16a0,0,0,0,0,0,0c-.27.08-.53.19-.79.29a.51.51,0,0,0-.23.25.06.06,0,0,0,.06,0Z" transform="translate(-1.74 -1.02)"/><path class="cls-104" d="M18.65,6.69a.08.08,0,0,0,0-.05l.12-.42L18.85,6c0-.1,0-.14-.09-.17h0a.34.34,0,0,0-.15-.06h0a.89.89,0,0,0-.17-.08.07.07,0,0,0-.1,0l0,.06c-.05.14-.11.27-.16.41l-.1.25a.1.1,0,0,0,.06.13l.1,0h0l.15.06s0,0,.05,0h0a.46.46,0,0,0,.16.07C18.59,6.76,18.62,6.75,18.65,6.69Z" transform="translate(-1.74 -1.02)"/><path class="cls-105" d="M14.74,1.38a.18.18,0,0,0-.14.08s0,0,0,.07,0,0,.07,0l.57,0c.1,0,.2,0,.3,0a.16.16,0,0,0,.15-.09l0,0a.15.15,0,0,0-.09,0C15.31,1.37,15,1.36,14.74,1.38Z" transform="translate(-1.74 -1.02)"/><path class="cls-106" d="M24.54,10.29a.2.2,0,0,0-.05.15,2,2,0,0,1,0,.25c0,.2,0,.39,0,.59a.06.06,0,0,0,0,.06.71.71,0,0,0,.16-.34c0-.17,0-.33,0-.5s0-.11,0-.17a.56.56,0,0,0,0-.22Z" transform="translate(-1.74 -1.02)"/><path class="cls-107" d="M15.38,10.7a.66.66,0,0,0-.19-.09L15,10.53h0a.7.7,0,0,0-.21-.11.1.1,0,0,0-.13,0l0,.05L14.4,11l-.13.26c0,.09,0,.14.07.19h0a.51.51,0,0,0,.18.09h.7a.07.07,0,0,0,.09-.06l.06-.12c.06-.13.12-.25.17-.37s0-.12,0-.17A.48.48,0,0,0,15.38,10.7Z" transform="translate(-1.74 -1.02)"/><path class="cls-108" d="M23.83,9.6s0-.06,0-.08a1.13,1.13,0,0,0,0-.18s0-.05-.06,0l-.27.08a.09.09,0,0,0-.07.09.49.49,0,0,0,0,.12l0,.45c0,.11,0,.21,0,.32a.13.13,0,0,0,0,.06s0,.05.06,0l.3-.1a.11.11,0,0,0,.06-.07v-.08c0-.14,0-.29,0-.43A.58.58,0,0,0,23.83,9.6Z" transform="translate(-1.74 -1.02)"/><path class="cls-109" d="M16.53,7.38l.18.09h0s0,0,0,0a.31.31,0,0,0,.13.06A.23.23,0,0,0,17,7.6l0,0a.07.07,0,0,0,.1,0s0,0,0-.06.09-.19.13-.29.12-.25.17-.38,0-.09,0-.14h0l0,0h0l-.09,0,0,0h0l-.12-.06h0l-.17-.08c-.07,0-.11,0-.15,0l0,0-.36.64a.08.08,0,0,0,0,0,.09.09,0,0,0,0,.12Z" transform="translate(-1.74 -1.02)"/><path class="cls-110" d="M19.24,4.28l0-.21c0-.11,0-.22.05-.33s0-.08,0-.11l-.17-.07s-.05,0-.07,0l0,0c-.05.16-.1.31-.16.46s0,.13.1.18l.16.07C19.2,4.35,19.22,4.34,19.24,4.28Z" transform="translate(-1.74 -1.02)"/><path class="cls-111" d="M18.42,3.2c-.06,0-.06,0-.12,0h0c-.15.12-.29.26-.43.39s0,0,0,0,0,.05,0,.06l.22.13c.06,0,.08,0,.12,0l0,0c.1-.13.21-.26.31-.4l0,0s0-.05,0-.06Z" transform="translate(-1.74 -1.02)"/><path class="cls-112" d="M18.23,8.05a.36.36,0,0,0,0-.09l.21-.67a.43.43,0,0,0,0,0c0-.07,0-.09-.08-.12l-.15-.06h0A.92.92,0,0,0,18,7l-.07,0c-.09,0-.13,0-.17.07l0,0-.25.61a.32.32,0,0,0,0,.09.1.1,0,0,0,0,.12l.1,0h.06l.16.07a0,0,0,0,1,0,0h0l.15.06.11,0A.08.08,0,0,0,18.23,8.05Z" transform="translate(-1.74 -1.02)"/><path class="cls-113" d="M22.05,6.93a1.19,1.19,0,0,0-.1-.32.08.08,0,0,0-.08-.06H21.6c-.07,0-.1,0-.08.08s0,.25.07.37a.57.57,0,0,0,0,.18s0,0,0,.07v0a1.13,1.13,0,0,0,0,.18c0,.09,0,.11.14.11a1.51,1.51,0,0,0,.3,0c.07,0,.09,0,.08-.08l0-.14C22.12,7.21,22.09,7.06,22.05,6.93Z" transform="translate(-1.74 -1.02)"/><path class="cls-114" d="M23.11,6.29c-.05,0-.06,0,0,.12s.11.23.17.35,0,0,0,0h0s0,0,0,0h0l0,0h0a3.2,3.2,0,0,0,.16.39v0s0,0,.06,0l.11-.07c.06,0,.07-.06,0-.13a4.67,4.67,0,0,0-.23-.51.31.31,0,0,0-.05-.1l-.12-.23s0,0-.07,0Z" transform="translate(-1.74 -1.02)"/><path class="cls-115" d="M14.53,9.71h0l.06-.06c.14-.25.28-.5.41-.75,0-.08,0-.12-.07-.17l-.15-.08-.13-.07a.21.21,0,0,0-.1-.06.24.24,0,0,0-.11-.06.26.26,0,0,0-.13-.08.06.06,0,0,0-.05,0,.18.18,0,0,0-.11.08l-.28.47c0,.08-.1.16-.14.24a.11.11,0,0,0,0,.18.15.15,0,0,0,.09,0h0l0,0,.12.08.11.06h0a.18.18,0,0,0,.07.05.46.46,0,0,0,.14.07.14.14,0,0,0,.08.05.1.1,0,0,0,.09,0Z" transform="translate(-1.74 -1.02)"/><path class="cls-116" d="M7.2,10.39v-.22c0-.19,0-.38.06-.56a.32.32,0,0,0,0-.14c0-.11-.06-.21-.09-.34a.45.45,0,0,0,0,.08,6.81,6.81,0,0,0,0,.78,1.37,1.37,0,0,0,.09.4Z" transform="translate(-1.74 -1.02)"/><path class="cls-117" d="M8.08,12.22a3.58,3.58,0,0,1-.3-.36s0,0,0,0a3.9,3.9,0,0,0,0,.58l.28-.06c.1,0,.1,0,0-.11Z" transform="translate(-1.74 -1.02)"/><path class="cls-118" d="M23.47,5.64a.44.44,0,0,0,.07.33,6.54,6.54,0,0,1,.35.64s0,0,.06.07a.5.5,0,0,0,0-.3,7.76,7.76,0,0,0-.4-.69A.08.08,0,0,0,23.47,5.64Z" transform="translate(-1.74 -1.02)"/><path class="cls-119" d="M15.23,6.23l0,0h0s0,0,0,0,.11-.14.16-.2l.15-.19s0-.09,0-.12a.6.6,0,0,0-.13-.09l-.09-.06h0l-.09-.06h0s0,0,0,0h0l0,0h0c-.07-.06-.11-.06-.17,0a.1.1,0,0,0,0,0c-.15.14-.29.3-.43.45a.57.57,0,0,0-.1.13s0,.07,0,.1a.8.8,0,0,0,.19.13.38.38,0,0,0,.13.09h0a.42.42,0,0,0,.14.09c.09.07.14.07.21,0l0,0h0l0,0h0s0,0,0,0h0s0,0,0,0h0s0,0,0,0h0l0,0h0Z" transform="translate(-1.74 -1.02)"/><path class="cls-120" d="M14,1.72a3.4,3.4,0,0,0-.46.09l-.37.09C13,1.94,13,2,13,2.12s0,.07.07.06.27-.07.4-.12h0s0,0,.06,0L13.78,2l.2-.05c.06,0,.07,0,.07-.09s0-.05,0-.07S14.07,1.71,14,1.72Z" transform="translate(-1.74 -1.02)"/><path class="cls-121" d="M23.6,6.65s0,0,0,0h0a2.92,2.92,0,0,0,.17.36l.09-.13a.13.13,0,0,0,0-.12,1.47,1.47,0,0,0-.14-.28A1.82,1.82,0,0,0,23.41,6a.41.41,0,0,1-.05.09.11.11,0,0,0,0,.13Z" transform="translate(-1.74 -1.02)"/><path class="cls-122" d="M20.15,4.07s0,0,0-.05A.18.18,0,0,0,20,3.84h-.07c-.06,0-.07,0-.06,0l0,.17c0,.12,0,.24,0,.36a.59.59,0,0,0,0,.14s0,.06.06.07l.24.06c.05,0,.06,0,.06,0l0-.11A2.5,2.5,0,0,0,20.15,4.07Z" transform="translate(-1.74 -1.02)"/><path class="cls-123" d="M17.89,3.37l.31-.24s0,0,0-.07L18.08,3A.1.1,0,0,0,18,3l-.15.09a3.78,3.78,0,0,0-.43.26h0s0,0,0,.07l.19.12c.07,0,.07,0,.14,0h0l0,0h0l0,0h0s0,0,0,0h0a0,0,0,0,1,0,0h0Z" transform="translate(-1.74 -1.02)"/><path class="cls-124" d="M11.24,2.56a.29.29,0,0,0,.12-.1.6.6,0,0,1,.09-.15.06.06,0,0,0,0,0,7.41,7.41,0,0,0-.67.4.66.66,0,0,0-.21.23s0,0,0,0l.35-.23Z" transform="translate(-1.74 -1.02)"/><path class="cls-125" d="M20.67,5.68c0,.08,0,.17,0,.26a.1.1,0,0,0,.05.09h0l.36.06c.05,0,.06,0,.06-.06a.89.89,0,0,0,0-.14c0-.14-.07-.29-.12-.44h0s0,0,0,0A1.05,1.05,0,0,0,21,5.23s0-.07-.07-.07l-.26,0c-.06,0-.07,0-.06.06a1,1,0,0,0,0,.17Z" transform="translate(-1.74 -1.02)"/><path class="cls-126" d="M8,6.25A.58.58,0,0,0,8.1,6a.74.74,0,0,1,0-.21s0,0,0,0a7.55,7.55,0,0,0-.39.81A.86.86,0,0,0,7.64,7s0,0,0-.06C7.78,6.67,7.88,6.46,8,6.25Z" transform="translate(-1.74 -1.02)"/><path class="cls-127" d="M16.84,3.72q-.21.15-.42.33l0,0s0,0,0,.07.15.11.23.15h0s0,0,0,0l0,0c.08.05.1.05.16,0A.86.86,0,0,0,17,4.21h0l0,0h0l0,0s0,0,0,0l.28-.27,0,0a0,0,0,0,0,0-.06.57.57,0,0,0-.13-.08h0l-.09-.07a.09.09,0,0,0-.11,0l-.13.1Z" transform="translate(-1.74 -1.02)"/><path class="cls-128" d="M18.71,4.05s0,0,0,0l.18-.43c.05-.11.05-.11-.07-.15a.16.16,0,0,0-.09-.05,0,0,0,0,0-.07,0l0,0-.28.42,0,.06s0,0,0,.06l.18.09h0s0,0,0,0h0v0C18.66,4.12,18.68,4.12,18.71,4.05Z" transform="translate(-1.74 -1.02)"/><path class="cls-129" d="M21.49,8.65a1.41,1.41,0,0,0,0-.29V8.11a.29.29,0,0,0,0-.09s0-.09-.1-.08a.69.69,0,0,0-.2,0l-.25,0c-.05,0-.07,0-.09.06a.66.66,0,0,0,0,.14q0,.31,0,.63a.38.38,0,0,0,0,.15c0,.08.08.07.14.08a1.09,1.09,0,0,0,.26,0s.06,0,.09,0h0s.07,0,.11,0A.08.08,0,0,0,21.48,9a.22.22,0,0,0,0-.08A1.61,1.61,0,0,0,21.49,8.65Z" transform="translate(-1.74 -1.02)"/><path class="cls-130" d="M20.8,4.75a0,0,0,0,0,0,0,3.85,3.85,0,0,0-.19-.47s-.05-.1-.07-.16-.08-.15-.25-.18h0s-.05,0,0,0a.88.88,0,0,0,.05.15c0,.14.09.29.14.43a.37.37,0,0,0,0,.15s0,.06.06.06l.23,0S20.8,4.78,20.8,4.75Z" transform="translate(-1.74 -1.02)"/><path class="cls-131" d="M24.4,7.94s0,0,0,.06a.66.66,0,0,0,0-.28,6.6,6.6,0,0,0-.2-.63c0-.07-.05-.13-.08-.19h0s0,.07,0,.11a.41.41,0,0,0,0,.19A6.44,6.44,0,0,1,24.4,7.94Z" transform="translate(-1.74 -1.02)"/><path class="cls-132" d="M23.09,5.72a.12.12,0,0,0,.06-.08.09.09,0,0,0,0-.12,4.59,4.59,0,0,0-.33-.44,2.88,2.88,0,0,0-.27-.34.15.15,0,0,0-.05.07s0,.06,0,.1l.26.34C22.87,5.41,23,5.57,23.09,5.72Z" transform="translate(-1.74 -1.02)"/><path class="cls-133" d="M20.81,7.13a.81.81,0,0,0,0,.22s0,.08.07.09l.16,0,.3,0s.06,0,.07,0V7.39c0-.1,0-.2,0-.3a.78.78,0,0,0,0-.21v0s0,0,0-.07a.54.54,0,0,0,0-.21s0,0-.06-.06-.08,0-.12,0l-.11,0h-.11c-.09,0-.11,0-.11.08s0,.2,0,.29S20.81,7,20.81,7.13Z" transform="translate(-1.74 -1.02)"/><path class="cls-134" d="M16,4.42l-.17.15c-.14.12-.27.25-.4.38s0,0,0,0,0,.07,0,.1l.17.11a.67.67,0,0,0,.14.09l.12.08s.06,0,.09,0,.05,0,.07-.06c.15-.18.3-.35.46-.52l0,0s0-.07,0-.09a.76.76,0,0,0-.19-.12s0,0,0,0h0a.24.24,0,0,0-.08-.06h0a0,0,0,0,1,0,0h0S16,4.4,16,4.42Z" transform="translate(-1.74 -1.02)"/><path class="cls-135" d="M24.19,12l-.19.13a.14.14,0,0,0-.08.1.53.53,0,0,0,0,.12s0,0,0,0l.17,0c.05,0,.05,0,.06,0s.05-.23.08-.34a.22.22,0,0,0,0-.08S24.2,12,24.19,12Z" transform="translate(-1.74 -1.02)"/><path class="cls-136" d="M20.92,4.7a.16.16,0,0,0,.17.12h.16A3.42,3.42,0,0,0,21,4.35h0s0,0,0,0a1.37,1.37,0,0,0-.13-.2s0,0,0,0-.1-.16-.27-.14a1.51,1.51,0,0,0,.15.28s0,0,0,0h0l0,0h0a.72.72,0,0,0,.09.2,0,0,0,0,1,0,0h0l0,0h0A.39.39,0,0,0,20.92,4.7Z" transform="translate(-1.74 -1.02)"/><path class="cls-137" d="M14.18,1.36a.43.43,0,0,0,.28-.13.81.81,0,0,0-.16,0l-.65.11a.85.85,0,0,0-.28.15h0A7.09,7.09,0,0,1,14.18,1.36Z" transform="translate(-1.74 -1.02)"/><path class="cls-138" d="M19.47,2.8a.33.33,0,0,0,0,.1v.36c0,.17,0,.14.15.19s.06,0,.05,0a5.17,5.17,0,0,0-.11-.54A.09.09,0,0,0,19.47,2.8Z" transform="translate(-1.74 -1.02)"/><path class="cls-139" d="M17.42,2.85a1.6,1.6,0,0,0-.47.21v0l.17.13c.06,0,.08,0,.15,0h0l0,0,.3-.16h0l.24-.12s0,0,0-.06l-.1-.07s0,0,0,0h-.05A1.08,1.08,0,0,0,17.42,2.85Z" transform="translate(-1.74 -1.02)"/><path class="cls-140" d="M19.65,2.85a0,0,0,0,0,0,0s0,0,0,0,0,.11,0,.17.07.26.11.39,0,.06,0,.07a.76.76,0,0,0,.16,0v0a4.46,4.46,0,0,0-.28-.63S19.67,2.85,19.65,2.85Z" transform="translate(-1.74 -1.02)"/><path class="cls-141" d="M19.32,2.78c-.05.15-.1.29-.14.44s0,.06,0,.08l.08,0c.06,0,.07,0,.08,0l0-.35V2.8s0,0-.06,0S19.32,2.77,19.32,2.78Z" transform="translate(-1.74 -1.02)"/><path class="cls-142" d="M19.17,2.71,18.93,3c-.08.12-.07.1.05.16l.06,0a.07.07,0,0,0,.05,0L19.16,3l.1-.24s0,0,0-.07S19.19,2.69,19.17,2.71Z" transform="translate(-1.74 -1.02)"/><path class="cls-143" d="M21.46,6.13l.27,0c.07,0,.08,0,.06-.08a2.9,2.9,0,0,0-.16-.41,1.62,1.62,0,0,0-.13-.33l0-.07a.12.12,0,0,0-.13-.07H21.2c-.07,0-.08,0-.06.08s.08.26.13.39,0,0,0,0h0s0,0,0,0h0a1.92,1.92,0,0,0,.09.32.08.08,0,0,0,0,.06Z" transform="translate(-1.74 -1.02)"/><path class="cls-144" d="M17.23,2.56a.54.54,0,0,0-.21,0,.8.8,0,0,0-.15,0l-.24.07s-.05,0,0,.06l.13.12a.09.09,0,0,0,.14,0h.05l.24-.1.23-.07a1.13,1.13,0,0,0,.24-.08l-.1-.1a.11.11,0,0,0-.09,0A.79.79,0,0,0,17.23,2.56Z" transform="translate(-1.74 -1.02)"/><path class="cls-145" d="M19,2.65l-.33.24c-.13.1-.1.08,0,.15s.08,0,.13,0l.3-.33s0,0,0,0a.07.07,0,0,0-.06,0A.15.15,0,0,0,19,2.65Z" transform="translate(-1.74 -1.02)"/><path class="cls-146" d="M19,2.58c0-.05-.06,0-.1,0l-.28.11a2,2,0,0,0-.3.14s.06.05.08.07a.1.1,0,0,0,.15,0L19,2.61S19,2.6,19,2.58Z" transform="translate(-1.74 -1.02)"/><path class="cls-147" d="M22.31,5s0,0,0,.08.16.24.23.35,0,0,0,0h0l0,0a2.13,2.13,0,0,0,.16.25,1,1,0,0,0,.13.22s0,0,.07,0l.07,0c.05,0,.06,0,0-.11a1.75,1.75,0,0,0-.18-.29l-.17-.24c0-.07-.1-.14-.15-.21S22.41,4.93,22.31,5Z" transform="translate(-1.74 -1.02)"/><path class="cls-148" d="M20.55,7.22V6.88a1,1,0,0,0,0-.17V6.54a.37.37,0,0,0,0-.11s0-.07-.08-.07h0l-.19,0-.14,0c-.1,0-.12,0-.13.09v0c0,.24,0,.47-.06.71a.11.11,0,0,0,0,0,.08.08,0,0,0,.07.09l.08,0a1.41,1.41,0,0,0,.22.06l.2,0s.06,0,.08,0A.19.19,0,0,0,20.55,7.22Z" transform="translate(-1.74 -1.02)"/><path class="cls-149" d="M16,1.68c0,.05,0,.07.07.07h.53a.47.47,0,0,0,.17,0s0,0,0,0,.07,0,.1,0l.12,0s.06,0,.06,0,0-.06,0-.06a1.81,1.81,0,0,0-.23,0,.5.5,0,0,0-.17,0h0l-.3,0h-.27S16,1.62,16,1.68Z" transform="translate(-1.74 -1.02)"/><path class="cls-150" d="M22.46,6a0,0,0,0,0,.06,0L22.69,6a0,0,0,0,0,0-.06s0,0,0,0a1.69,1.69,0,0,0-.17-.29,1.09,1.09,0,0,0-.14-.23s0,0,0,0l-.1-.14h0v0s0,0,0-.06,0-.07-.13-.05l-.05,0c-.06,0-.07,0,0,.08a1.09,1.09,0,0,0,.14.23s0,0,0,0h0l.09.17s0,0,0,0h0a1.76,1.76,0,0,0,.09.2h0v0h0l0,0h0A.23.23,0,0,0,22.46,6Z" transform="translate(-1.74 -1.02)"/><path class="cls-151" d="M19.59,7.05a.16.16,0,0,0,0-.1,1.2,1.2,0,0,0,0-.2c0-.11,0-.23,0-.34a.66.66,0,0,0,0-.14c0-.11,0-.13-.12-.15a.64.64,0,0,0-.18-.06h0s0,0-.05,0a.34.34,0,0,0-.14,0c-.05,0-.07,0-.09,0a.13.13,0,0,0,0,.06c0,.14-.07.28-.1.42l-.06.27c0,.07,0,.1.07.13a.75.75,0,0,0,.18.07.88.88,0,0,0,.23.07l.09,0S19.57,7.08,19.59,7.05Z" transform="translate(-1.74 -1.02)"/><path class="cls-152" d="M16.07,1.52l.06,0,.31,0a2.85,2.85,0,0,0,.29,0l.36.07c.05,0,.06,0,.08-.08l-.38-.07h0s0,0,0,0l0,0-.52-.07C16.13,1.41,16.1,1.42,16.07,1.52Z" transform="translate(-1.74 -1.02)"/><path class="cls-153" d="M24.33,12.05l-.09.37s0,.05,0,.06,0,0,.06,0l.06-.23a5.27,5.27,0,0,0,.14-.6.67.67,0,0,0-.18.39S24.33,12,24.33,12.05Z" transform="translate(-1.74 -1.02)"/><path class="cls-154" d="M23.21,9.8a1.23,1.23,0,0,0,0-.27c0-.06,0-.07-.09-.07l-.15,0-.2,0c-.05,0-.07,0-.08.07a.22.22,0,0,0,0,.08,5.21,5.21,0,0,1,0,.79.22.22,0,0,0,0,.08c0,.05,0,.06.08.06h.14l.19,0c.12,0,.15,0,.15-.16v0c0-.16,0-.33,0-.49A.13.13,0,0,0,23.21,9.8Z" transform="translate(-1.74 -1.02)"/><path class="cls-155" d="M22.3,6.05a1.77,1.77,0,0,0-.15-.31h0s0,0,0,0-.08-.16-.12-.24a1.49,1.49,0,0,0-.14-.24h0s0,0,0,0,0,0-.08,0l-.12,0c-.06,0-.07,0-.05.07l.1.2a0,0,0,0,1,0,0h0a2.92,2.92,0,0,0,.14.31l.06.16A.37.37,0,0,0,22,6.1s0,.05.07,0a1.23,1.23,0,0,0,.19,0C22.31,6.11,22.32,6.1,22.3,6.05Z" transform="translate(-1.74 -1.02)"/><path class="cls-156" d="M17.07,1.87c-.13,0-.26,0-.39,0h-.13a3.69,3.69,0,0,0-.47,0c-.06,0-.06,0,0,.07s0,.1.12.1h.25a.38.38,0,0,0,.15,0h.54s0,0,0,0A.1.1,0,0,0,17.07,1.87Z" transform="translate(-1.74 -1.02)"/><path class="cls-157" d="M16.93,2.06a3.05,3.05,0,0,0-.43,0h-.34s-.05,0,0,.06l.06.1a.05.05,0,0,0,.06,0,1.24,1.24,0,0,0,.27,0l.29,0,.42,0c0-.13-.05-.13-.16-.14A.65.65,0,0,0,16.93,2.06Z" transform="translate(-1.74 -1.02)"/><path class="cls-158" d="M10,3.44a.84.84,0,0,0,.25-.28s0,0,0,0,0,0,0,0c-.18.14-.34.3-.51.46a.93.93,0,0,0-.13.15s0,0,0,0Z" transform="translate(-1.74 -1.02)"/><path class="cls-159" d="M19.4,5.66l.09,0s0,0,.05,0l.11,0c.06,0,.08,0,.09-.06a0,0,0,0,1,0,0c0-.22,0-.45,0-.67a.07.07,0,0,0,0-.06s0,0,0,0l-.14,0a.85.85,0,0,0-.17-.06s0,0-.06,0a.13.13,0,0,0,0,.06,1.87,1.87,0,0,0,0,.25c0,.13-.05.26-.07.39s0,.08,0,.11A.28.28,0,0,0,19.4,5.66Z" transform="translate(-1.74 -1.02)"/><path class="cls-160" d="M21.36,4.76h0a.1.1,0,0,0,.12.06l.09,0s0,0,0,0a.76.76,0,0,0-.12-.19,1.43,1.43,0,0,0-.14-.2h0s0,0,0,0a1.56,1.56,0,0,0-.16-.2A.83.83,0,0,0,21,4,.06.06,0,0,0,21,4h-.11a3.37,3.37,0,0,0,.21.31.82.82,0,0,0,.12.2l0,0h0v0h0a1.13,1.13,0,0,0,.12.21Z" transform="translate(-1.74 -1.02)"/><path class="cls-161" d="M21.45,3.79,21.7,4l.29.29h0v0h0a.49.49,0,0,0,.12.13s0,0,0,0a.08.08,0,0,0,0-.12.71.71,0,0,0-.15-.15A2.39,2.39,0,0,0,21.83,4a3.9,3.9,0,0,0-.38-.33C21.4,3.75,21.4,3.75,21.45,3.79Z" transform="translate(-1.74 -1.02)"/><path class="cls-162" d="M23.48,5.52c.13.2.26.4.37.61a.22.22,0,0,0,.06.1.28.28,0,0,0,0-.11,0,0,0,0,0,0,0h0s0-.08,0-.11a5.57,5.57,0,0,0-.39-.67.05.05,0,0,0,0,0s0,.06,0,.08A.55.55,0,0,0,23.48,5.52Z" transform="translate(-1.74 -1.02)"/><path class="cls-163" d="M13.31,11.37a1.43,1.43,0,0,0-.21-.12.51.51,0,0,0-.16-.09h0a.2.2,0,0,0-.09-.06.1.1,0,0,0-.13,0l0,.06-.21.42a.07.07,0,0,0,0,.06l.28,0a1.1,1.1,0,0,0,.18,0c.12,0,.24,0,.35,0a2,2,0,0,0,.35,0,.09.09,0,0,0-.05-.08A1.55,1.55,0,0,0,13.31,11.37Z" transform="translate(-1.74 -1.02)"/><path class="cls-164" d="M21.1,3.93a3.11,3.11,0,0,0,.23.28s0,0,0,0h0a1.16,1.16,0,0,0,.16.21l0,0h0a0,0,0,0,1,0,0h0l.13.2c.08.1.06.09.18,0s.06,0,0-.07a2,2,0,0,0-.25-.32l0,0a1.56,1.56,0,0,0-.16-.2h0s0,0,0,0A.67.67,0,0,0,21.27,4C21.2,3.88,21.19,3.88,21.1,3.93Z" transform="translate(-1.74 -1.02)"/><path class="cls-165" d="M10.84,11.69l-.06.17.4,0L11,11.66A.08.08,0,0,0,10.84,11.69Z" transform="translate(-1.74 -1.02)"/><polygon class="cls-166" points="16.02 1.74 16.02 1.74 16.02 1.74 16.02 1.74"/><path class="cls-167" d="M12.87,1.64a1,1,0,0,0,.2-.12,0,0,0,0,0-.05,0l-.46.17a2.17,2.17,0,0,0-.35.15s0,0,0,0Z" transform="translate(-1.74 -1.02)"/><path class="cls-168" d="M18.83,2.46l-.34.07s0,0-.07,0h0a1.55,1.55,0,0,0-.31.07c.1.13.12.13.25.08l.06,0,0,0h0l.37-.12s0,0,0,0,0,0,0,0Z" transform="translate(-1.74 -1.02)"/><path class="cls-169" d="M21.32,3.82s0,0,0,0a2.39,2.39,0,0,0,.22.23h0l0,0h0l0,0h0v0h0l.22.26.16.19c.05.06.06.06.12,0s.05,0,0-.09a1.42,1.42,0,0,0-.2-.22,2.83,2.83,0,0,0-.24-.25h0a0,0,0,0,1,0,0h0a0,0,0,0,1,0,0h0a1,1,0,0,0-.18-.18A0,0,0,0,0,21.32,3.82Z" transform="translate(-1.74 -1.02)"/><path class="cls-170" d="M16.73,11.29l-.26-.1h0l0,0-.11,0-.07,0h0l-.1,0c-.1,0-.15,0-.19.08l-.15.32a.08.08,0,0,0,0,.05H16.9c.06,0,.07,0,.06-.08a.14.14,0,0,0-.07-.08Z" transform="translate(-1.74 -1.02)"/><path class="cls-171" d="M17.26,2.28h-.07a1.63,1.63,0,0,0-.31,0,1.86,1.86,0,0,0-.33,0,.54.54,0,0,0-.25.06l.12.14c0,.06.09,0,.13,0l.21-.05h.08l.3-.06a1.28,1.28,0,0,0,.27-.05l-.07-.1A.12.12,0,0,0,17.26,2.28Z" transform="translate(-1.74 -1.02)"/><path class="cls-172" d="M19.93,3.23a0,0,0,0,1,0,0h0s0,0,0,0h0s0,0,0,0h0s0,0,0,0h0c0,.06.06.12.08.18a.07.07,0,0,0,.05,0,.22.22,0,0,0,.14,0,2.38,2.38,0,0,0-.18-.3h0s0,0,0,0h0s0,0,0,0h0a0,0,0,0,1,0,0h0s0,0,0,0h0s0,0,0,0a2.53,2.53,0,0,0-.18-.27.07.07,0,0,0-.08,0Z" transform="translate(-1.74 -1.02)"/><path class="cls-173" d="M22.89,4.61l0,0h0s0,0,0,0h0s0,0,0,0a2.25,2.25,0,0,0-.31-.31.49.49,0,0,0,.06.17,1.94,1.94,0,0,0,.2.21h0l0,0h0s0,0,0,0,.22.25.32.38a.11.11,0,0,0,.05,0,.48.48,0,0,0-.07-.2,2,2,0,0,0-.23-.28Z" transform="translate(-1.74 -1.02)"/><path class="cls-174" d="M16.91,1.39h0a.58.58,0,0,0-.14,0l-.35-.07a.19.19,0,0,0-.18.07l.58.1h.06l.35.08a.12.12,0,0,0,.1-.06A2.21,2.21,0,0,0,17,1.4Z" transform="translate(-1.74 -1.02)"/><path class="cls-175" d="M20.25,2.48c.1,0,.2,0,.31.07-.07-.08-.08-.09-.16-.11l-.32,0a1,1,0,0,0-.17,0s.05,0,.07,0,0,0,0,0l.08,0,.13,0v0l-.1,0a0,0,0,0,0,0,0s0,0,0,0a.14.14,0,0,0,.08.07s-.05,0,0,.05h0l0,0s0,0,0,0h0s0,0,0,0,0,0,0,0h-.08a0,0,0,0,0,0,0h0s0,0,0,0l0,0h0l-.08,0s0,0,0,0l0,0s0-.05-.08,0l.28.37v0h0s0,0,0,0h0s0,0,0,0h0v0h0s0,0,0,0h0l0,0h0a.75.75,0,0,0,.09.15c0,.08.1.09.19.08a2.85,2.85,0,0,0-.25-.33s0,0,0,0h0s0,0,0,0h0s0,0,0,0h0l0,0c0-.07-.11-.12-.15-.19l0,0,.07.07.26.28s0,0,0,0h0s0,0,0,0h0s0,0,0,0h0s0,0,0,0h0a.87.87,0,0,0,.09.11.11.11,0,0,0,.16,0l-.26-.28h0s0,0,0,0l-.17-.18h0l.21.19,0,0h0l0,0h0l.21.22s0,0,.12,0a1.06,1.06,0,0,0-.15-.15s0,0,0,0h0l0,0h0l0,0h0l0,0h0l0,0h0l0,0h0l0,0h0l0,0h0v0h0v0h0s0,0,0,0v0h0s0,0,0,0h0s0,0,0,0h0s0,0,0,0h0l.16.13s.06,0,.09,0h0a0,0,0,0,1,0,0h0s0,0,0,0a0,0,0,0,0,0,0h0l0,0s0,0,0,0h0a0,0,0,0,0,0,0,0,0,0,0,1,0,0h0l0,0h0s0,0,0,0v0s0,0,0,0h0a0,0,0,0,0,0,0s0,0,0,0h0l0,0h0s0,0,0,0h0l0,0h0s0,0,0,0l0,0h0l0,0h0l0,0h0s0,0,0,0h.13a0,0,0,0,1,0,0h0a0,0,0,0,0,0,0s0-.06,0-.08l-.28-.18s0,0,0,0l.24.14A.09.09,0,0,0,21,3.1L20.84,3l0,0L21,3a.66.66,0,0,0-.09-.15.2.2,0,0,0-.14-.1h0s0,0-.05,0h0v0h-.05l0,0h-.05s0,0,0,0h.1l0,0h.07s0,0,0,0a.23.23,0,0,0-.16-.1L20.2,2.5s0,0,.05,0Zm.36.81h0Zm-.08-.59Z" transform="translate(-1.74 -1.02)"/><path class="cls-176" d="M19.8,2.31a.11.11,0,0,0,.1,0h.22l.22,0a.3.3,0,0,0-.26-.11A1.45,1.45,0,0,0,19.8,2.31Z" transform="translate(-1.74 -1.02)"/><path class="cls-177" d="M22.84,4.79a1.42,1.42,0,0,0-.26-.29c0,.13,0,.14.05.22a.75.75,0,0,0,.11.13l0,0h0l.17.21,0,0h0l.23.31s0,0,0,0a.35.35,0,0,0,0-.2A2.35,2.35,0,0,0,23,5,1,1,0,0,0,22.84,4.79Z" transform="translate(-1.74 -1.02)"/><path class="cls-178" d="M19.56,2.18s.05,0,.08,0l.19-.13L19.68,2s-.05,0-.06,0l-.06.12S19.53,2.16,19.56,2.18Z" transform="translate(-1.74 -1.02)"/><path class="cls-179" d="M19.68,2.23a.1.1,0,0,0,.11,0,1,1,0,0,1,.3,0h0L20,2.13a0,0,0,0,0-.05,0A.7.7,0,0,0,19.68,2.23Z" transform="translate(-1.74 -1.02)"/><path class="cls-180" d="M18.87,1.74a3.07,3.07,0,0,1,.25.26.09.09,0,0,0,.09,0A2.09,2.09,0,0,0,19,1.75a.23.23,0,0,0-.18-.09s0,0,0,0,0,0,0,0Z" transform="translate(-1.74 -1.02)"/><path class="cls-181" d="M18.46,2.39a2,2,0,0,0-.56.07s.06.06.09.09a0,0,0,0,0,.05,0l.33-.06.45-.07a.1.1,0,0,0-.1,0Z" transform="translate(-1.74 -1.02)"/><path class="cls-182" d="M19.35,1.84a1.13,1.13,0,0,1,0,.15s0,.07,0,.1a.07.07,0,0,0,.07,0s0,0,0,0a.56.56,0,0,0,0-.12s0-.06,0-.07Z" transform="translate(-1.74 -1.02)"/><path class="cls-183" d="M19.26,2s0,0,.09,0a.8.8,0,0,0-.07-.2c0-.11-.12-.12-.21-.14C19.14,1.84,19.2,1.94,19.26,2Z" transform="translate(-1.74 -1.02)"/><path class="cls-184" d="M22.23,4.15,22,4l-.25-.22h0l0,0h0a0,0,0,0,0,0,0,1.5,1.5,0,0,0-.24-.18c0,.05,0,.09,0,.12s.09.08.15.12h0s0,0,0,0h0l0,0h0s0,0,0,0A2.52,2.52,0,0,0,22,4v0h0v0h0l.25.23C22.28,4.25,22.28,4.19,22.23,4.15Z" transform="translate(-1.74 -1.02)"/><path class="cls-185" d="M7.26,11.49c0-.11,0-.23,0-.34a2,2,0,0,0,0-.25,1.42,1.42,0,0,0-.07-.22,1.84,1.84,0,0,0,0,.33l.09.53a.17.17,0,0,0,0,.12s0-.09,0-.14Z" transform="translate(-1.74 -1.02)"/><path class="cls-186" d="M18,1.72H18l-.2-.07a.07.07,0,0,0-.09,0l.23.08H18s0,0,.05,0l.17.06h0l0,0h0l0,0s-.08,0-.13,0l0,0H18s0,0,0,0H18l0,0c.09,0,.19.05.28.09l0,0a1.46,1.46,0,0,0-.2-.05s0,0-.05,0H18c-.13,0-.27-.07-.41-.11h0a0,0,0,0,0,0,0s0,0,0,0h0L18,2h0s0,0,.06,0h.05l.35.1h-.11c-.11,0-.22-.06-.33-.07a.9.9,0,0,0-.16,0l-.27-.05s0,0,0,0,0,.06.08.07l.33,0h0s.06,0,.08,0a.12.12,0,0,0,.08,0,1.94,1.94,0,0,1,.33.07h-.21a1.07,1.07,0,0,0-.25,0s-.07,0-.1,0h0a1.15,1.15,0,0,0-.26,0c0,.05,0,.1.09.1h.21a1.09,1.09,0,0,1,.18,0,1.28,1.28,0,0,0,.19,0l.39,0s-.07,0-.1,0l0,0s0,0,0,0,0,0,0,0h0l0,0h0s0,0,0,0l-.05,0h0s0,0,.06,0V2h0l0,0s.05,0,0,0h0s0,0,0,0a0,0,0,0,0,0,0h0l.05,0S19,2,19,2s0,0,.07,0h0a2.78,2.78,0,0,0-.41-.36.12.12,0,0,0-.1,0,0,0,0,0,0-.07,0s0,0,0,0l.06,0a0,0,0,0,0,0,0h0l0,0h0s0,0,0,0h0s0,0,0,0h0a0,0,0,0,1,0,0,0,0,0,0,1,0,0h0v0h0s0,0,0,0h0l0,0,0,0h-.05s0,0,0,0h0l0,0-.16-.09c-.05,0-.1-.05-.16,0h0c-.06,0-.12-.05-.19,0a.66.66,0,0,0,.19.09h0s0,0,0,0h0v0h-.05a2,2,0,0,0-.3-.14.11.11,0,0,0-.11,0l.26.11H18Z" transform="translate(-1.74 -1.02)"/><path class="cls-187" d="M17.25,1.29s0,0,0,0l.27.08a.19.19,0,0,0,.15,0,2.6,2.6,0,0,0-.36-.13h0a0,0,0,0,0,0,0s0,0,0,0h0a.91.91,0,0,0-.43-.07,0,0,0,0,0-.05,0l.07,0,.36.09h.05Z" transform="translate(-1.74 -1.02)"/><path class="cls-188" d="M7.29,8l.15-.5a.58.58,0,0,0,0-.23s0,0,0,0a4.07,4.07,0,0,0-.13.5A1.6,1.6,0,0,0,7.27,8a.86.86,0,0,0,0,.27,1.17,1.17,0,0,0,.07-.25Z" transform="translate(-1.74 -1.02)"/><polygon class="cls-189" points="19.2 2.23 19.2 2.23 19.2 2.23 19.2 2.23"/><path class="cls-190" d="M21.44,3.35a.12.12,0,0,0,0,.11.47.47,0,0,0,.12.09h0s0,0,0,0a0,0,0,0,1,0,0h0s0,0,0,0h0a2.11,2.11,0,0,0,.23.19l0,0h0l.23.2a.32.32,0,0,0-.18-.27h0l0,0h0s0,0,0,0a1.24,1.24,0,0,0-.26-.19h0s0,0,0,0h0l0,0h0Z" transform="translate(-1.74 -1.02)"/><path class="cls-191" d="M17.66,1.71a0,0,0,0,0,0,0s0,0,0,0,0,0,0,0l.36.09h0a.08.08,0,0,0,0,0A2.47,2.47,0,0,0,17.66,1.71Z" transform="translate(-1.74 -1.02)"/><path class="cls-192" d="M18.14,1.4a.2.2,0,0,0,.11,0h0l.08,0a.07.07,0,0,0-.06,0,1.11,1.11,0,0,0-.19-.09,1.08,1.08,0,0,0-.29-.09h-.06s0,0-.05,0a.16.16,0,0,0,.09,0Z" transform="translate(-1.74 -1.02)"/><path class="cls-193" d="M19.35,1.76l.13.06s0,0,.07,0,0,0,0,0l-.26-.11s0,0,0,0h0S19.32,1.75,19.35,1.76Z" transform="translate(-1.74 -1.02)"/><path class="cls-194" d="M19.68,1.9A.58.58,0,0,0,20,2,.61.61,0,0,0,19.68,1.9Z" transform="translate(-1.74 -1.02)"/><path class="cls-195" d="M8.89,4.5A.39.39,0,0,0,9,4.31.62.62,0,0,0,8.89,4.5Z" transform="translate(-1.74 -1.02)"/><path class="cls-196" d="M23.61,12.33l.08,0s0,0,0,0a0,0,0,0,0,0,0Z" transform="translate(-1.74 -1.02)"/><path class="cls-197" d="M9.49,3.8a.41.41,0,0,0-.07.11.34.34,0,0,0,.09-.08S9.49,3.81,9.49,3.8Z" transform="translate(-1.74 -1.02)"/><path class="cls-198" d="M12.24,1.86l0,0-.09,0a.07.07,0,0,0-.06.06l.09-.05Z" transform="translate(-1.74 -1.02)"/><path class="cls-199" d="M22.3,3.83a1.41,1.41,0,0,0,.34.43h0l0,0h0s0,0,0,0h0a2.29,2.29,0,0,0,.21.23l0,.06a.08.08,0,0,0,0,0,.06.06,0,0,0,0,0,.12.12,0,0,0-.05-.07,1.37,1.37,0,0,0-.15-.21h0s0,0,0,0h0l0,0h0l0,0h0a0,0,0,0,1,0,0,3.51,3.51,0,0,0-.37-.41.6.6,0,0,0-.08-.08,0,0,0,0,0,0,0s0,0,0,0A.24.24,0,0,0,22.3,3.83Z" transform="translate(-1.74 -1.02)"/><path class="cls-200" d="M18.23,2.27h0a2.57,2.57,0,0,0-.48,0s.06.11.13.11l.29,0h.58a.66.66,0,0,0-.31-.05A.62.62,0,0,0,18.23,2.27Z" transform="translate(-1.74 -1.02)"/><path class="cls-201" d="M24.71,9.87V10h0V9.87Z" transform="translate(-1.74 -1.02)"/><path class="cls-202" d="M20.81,2.53s0,0,.07,0,0,0-.06,0l-.08,0a1,1,0,0,0-.32-.15.79.79,0,0,0,.29.17Z" transform="translate(-1.74 -1.02)"/><path class="cls-203" d="M20.41,2.27a.07.07,0,0,0-.06,0,.72.72,0,0,0-.27-.12.8.8,0,0,0,.24.13S20.37,2.26,20.41,2.27Z" transform="translate(-1.74 -1.02)"/><path class="cls-204" d="M20.72,2.54l0,0a1,1,0,0,0,.28.17l0,0h0l0,0h0l0,0h.06l0,0h0l0,0h-.13v0h0s0,0,0,0,0,0,0,0a.65.65,0,0,0,.22.17h.07l0,0,0,0h0l0,0h0l0,0h0s0,0,0,0h0s0,0,0,0h0s0,0,0,0,0,0,0,0h0a1.88,1.88,0,0,1,.12.18.15.15,0,0,0,.1.09l0,0h0a.83.83,0,0,0,.18.13l.18.13s0,0,0,0h0l0,0h0s0,0,0,0h0a1.67,1.67,0,0,0,.16.12.63.63,0,0,0-.13-.2h0s0,0,0,0h0s0,0,0,0h0s0,0,0,0h0l0,0a.49.49,0,0,0-.16-.16l-.08-.06s0,0,0,0h0s0-.05-.07-.06a.38.38,0,0,0-.14-.11h0s0,0,0,0h0s0,0,0,0h0l0,0,0,0c0-.05,0-.06,0-.08l0,0s0,0,0,0a1.39,1.39,0,0,0-.41-.23S20.75,2.53,20.72,2.54Z" transform="translate(-1.74 -1.02)"/><path class="cls-205" d="M10.18,3.14l0,0a.08.08,0,0,0,0-.05S10.19,3.12,10.18,3.14Z" transform="translate(-1.74 -1.02)"/><path class="cls-206" d="M18.37,1.4a1,1,0,0,0,.29.13l.08,0s0,0,0,0a.9.9,0,0,0-.32-.13h0a.18.18,0,0,0-.11,0l.09,0Z" transform="translate(-1.74 -1.02)"/><path class="cls-207" d="M19.13,1.67s0,0,0,0a.82.82,0,0,0-.26-.1.53.53,0,0,0,.25.12S19.12,1.68,19.13,1.67Z" transform="translate(-1.74 -1.02)"/><path class="cls-208" d="M22.2,3.7h0v0s0,0,0,0,0,0,0,0Z" transform="translate(-1.74 -1.02)"/><path class="cls-209" d="M8.88,4.52h0s0,0,0,0h0A0,0,0,0,0,8.88,4.52Z" transform="translate(-1.74 -1.02)"/><polygon class="cls-210" points="20.47 2.69 20.47 2.69 20.47 2.69 20.47 2.69 20.47 2.69"/><path class="cls-211" d="M24.58,8.31s0,0,0,0a0,0,0,0,0,0,0v.1a.55.55,0,0,0,0,.18c0,.18.07.37.09.56a1,1,0,0,0,0,.24,1.28,1.28,0,0,0,0-.19,7.9,7.9,0,0,0-.11-.85Z" transform="translate(-1.74 -1.02)"/><path class="cls-212" d="M11.41,2.25a.49.49,0,0,0,.2-.11.78.78,0,0,0-.2.11h0s0,0,0,0Z" transform="translate(-1.74 -1.02)"/><path class="cls-213" d="M8.89,4.5h0v0h0Z" transform="translate(-1.74 -1.02)"/><path class="cls-214" d="M10.23,3.11h0Z" transform="translate(-1.74 -1.02)"/><text class="cls-215" transform="translate(3.24 18.88)">Certify with Confdence</text></svg>