<svg id="Layer_1" data-name="Layer 1" xmlns="http://www.w3.org/2000/svg" viewBox="0 0 45 27.9"><defs><style>.cls-1{fill:#fff;stroke:#fff;stroke-width:0.5px;}.cls-1,.cls-3,.cls-4{stroke-miterlimit:10;}.cls-2{font-size:5.81px;fill:#f20a0a;font-family:Gilroy-ExtraBold;font-weight:800;}.cls-3,.cls-4{fill:none;stroke-width:0.25px;}.cls-3{stroke:#f20a0a;}.cls-4{stroke:#231f20;}</style></defs><path class="cls-1" d="M11.51,16.69a7.81,7.81,0,0,0,.59.86c0,.28.08.56.14.84l.06,0a5.81,5.81,0,0,1-.11-.71l.52.59.14,0c-.25-.26-.48-.51-.68-.76a10.52,10.52,0,0,1,0-1.86c.28.34.59.69.94,1.05a11.44,11.44,0,0,0-.1,1.53l.12,0a8.19,8.19,0,0,1,.11-1.38c.34.35.73.7,1.14,1.06l.23-.06A15.19,15.19,0,0,1,15.17,16c.46.4,1,.8,1.47,1.19,0,.05,0,.09-.05.13l.47-.09-.15-.11c.27-.59.58-1.2.92-1.83.55.41,1.12.82,1.71,1.22l-.2.35.31,0,.1-.17.21.14.4,0-.49-.32c.19-.33.39-.67.6-1s.37-.62.56-.93c.6.4,1.22.8,1.84,1.18l-.54.91.31,0,.45-.76c.42.25.84.49,1.27.72l.56,0c-.57-.31-1.14-.63-1.69-1l1.18-2c.61.37,1.23.73,1.86,1.07-.34.62-.69,1.24-1.05,1.87h.29c.33-.58.66-1.17,1-1.76.63.34,1.27.66,1.9,1-.16.33-.33.65-.5,1l.26,0c.15-.3.32-.6.46-.9.32.15.65.3,1,.43s.61.26.91.38c0,.13-.11.25-.17.37l.24,0c0-.11.09-.22.14-.33.6.23,1.16.43,1.7.59l0,.06.19,0s0,0,0,0c.43.13.83.22,1.21.31l.41.09h0a8.18,8.18,0,0,0,1.21.14.88.88,0,0,1-.05.15l.12,0,.06-.17a4.6,4.6,0,0,0,1-.07c0,.16-.11.31-.16.46l.08,0A14.52,14.52,0,0,0,33,3.88h-.18A12.05,12.05,0,0,0,31.28,2.4h0l-.06,0-.06,0L31,2.21l.21.11h0a10.63,10.63,0,0,0-1.9-.83c-.3-.2.37.11.56.35-.09,0-.95-.55-1-.58a.33.33,0,0,0,0,.14A12.79,12.79,0,0,0,26.6,1a.57.57,0,0,1,0-.26c.37.06,1.61.37,2,.46-5.7-1.46-12.73.52-15.8,5.62a12.41,12.41,0,0,0-1.24,2.8l0,.09a13.09,13.09,0,0,1,.58-1.54,1.8,1.8,0,0,0,0,.73,13.2,13.2,0,0,0-.73,2.05,1.81,1.81,0,0,1,0-.65l.16-.59-.15.54c0,.07,0,.14,0,.21v0a1.61,1.61,0,0,0,0,.69,12.42,12.42,0,0,0-.3,2.08c0-.16.27-2.59.28-2.72s-.15.81-.18,1.07S11,13,11,13.07v.41a11.94,11.94,0,0,0,.14,2.07c0-.05,0-.09,0-.14l0,.28s0,.06,0,.09c0,.2.07.39.11.59l.5,1.73a.59.59,0,0,0,0-.08l.1.27a1.63,1.63,0,0,0,.09.19h0A10.72,10.72,0,0,1,11.51,16.69Zm.57.65a6.83,6.83,0,0,1-.6-.87,10.65,10.65,0,0,1-.06-2,8.12,8.12,0,0,0,.67,1A10.52,10.52,0,0,0,12.08,17.34Zm0-2.08a8.34,8.34,0,0,1-.68-1,11.08,11.08,0,0,1,.34-2,7.59,7.59,0,0,0,.72,1.05A12.65,12.65,0,0,0,12.11,15.26ZM13.55,11c.17-.34.36-.69.57-1s.38-.62.59-.92a13.91,13.91,0,0,0,1.06,1.18c-.21.3-.4.6-.59.91s-.4.69-.58,1C14.21,11.79,13.86,11.39,13.55,11Zm.94,1.4a17.3,17.3,0,0,0-.81,1.93,14.66,14.66,0,0,1-1-1.13,15.11,15.11,0,0,1,.77-2C13.74,11.62,14.1,12,14.49,12.41ZM33.85,10a16.48,16.48,0,0,0-.18-2c.3.08.57.15.82.2a15.59,15.59,0,0,1,.38,2.08C34.56,10.15,34.22,10.07,33.85,10Zm1,.5A17.42,17.42,0,0,1,35,12.63a11.67,11.67,0,0,1-1.2-.3,19.17,19.17,0,0,0,.09-2.13A10.52,10.52,0,0,0,34.9,10.46Zm-1.17-.54c-.37-.11-.76-.25-1.18-.4a16.08,16.08,0,0,0,.07-1.94l1,.33A16.36,16.36,0,0,1,33.73,9.92Zm0,.24a19,19,0,0,1-.12,2.12c-.43-.13-.9-.29-1.39-.48.14-.7.24-1.38.31-2.05C33,9.91,33.35,10.05,33.73,10.16ZM19.42,6.42a22,22,0,0,1,1.73-1.36c.32.33.68.66,1.06,1-.55.45-1.09.94-1.61,1.46C20.17,7.14,19.78,6.78,19.42,6.42Zm1,1.27c-.52.53-1,1.08-1.51,1.66C18.45,9,18,8.56,17.64,8.17a18.23,18.23,0,0,1,1.59-1.58C19.59,7,20,7.32,20.42,7.69Zm1.93-1.53c.38.34.8.67,1.23,1-.49.5-1,1-1.46,1.59-.48-.37-.94-.74-1.37-1.11C21.27,7.12,21.8,6.62,22.35,6.16ZM22.53,6a20.59,20.59,0,0,1,1.66-1.25c.33.28.68.56,1,.85-.49.43-1,.89-1.48,1.38C23.33,6.66,22.92,6.33,22.53,6Zm2.84-.31q.55.43,1.17.84c-.42.49-.85,1-1.28,1.54-.47-.32-.92-.65-1.36-1Q24.64,6.36,25.37,5.7Zm2.68,1.56c-.42-.26-.83-.52-1.23-.79.41-.48.8-.93,1.19-1.35.32.22.65.43,1,.64Zm1.07-1.43c.34.21.68.4,1,.59-.2.53-.42,1.09-.66,1.66-.44-.23-.87-.48-1.29-.73C28.52,6.81,28.83,6.31,29.12,5.83Zm-2.44.55c-.4-.27-.78-.55-1.14-.83.48-.42,1-.81,1.43-1.16l.93.66C27.5,5.46,27.1,5.9,26.68,6.38Zm0,.26c.4.27.83.54,1.25.8l-1,1.69c-.5-.31-1-.62-1.46-.94C25.85,7.65,26.27,7.13,26.68,6.64Zm1.4.9c.44.26.87.51,1.32.75-.25.58-.52,1.19-.81,1.81-.52-.27-1-.57-1.53-.87C27.41,8.64,27.76,8.08,28.08,7.54Zm1.47.83c.45.24.9.46,1.35.68-.17.63-.36,1.27-.57,1.94-.53-.25-1-.51-1.56-.79Q29.19,9.26,29.55,8.37Zm1.5.75.69.3.64.27a18.8,18.8,0,0,1-.33,2l-.75-.31-.79-.35Q30.82,10.07,31.05,9.12Zm1.36.34-.63-.26-.67-.3c.14-.63.26-1.24.35-1.82l.54.24.51.21A18.36,18.36,0,0,1,32.41,9.46ZM31,8.83c-.44-.21-.88-.43-1.31-.66.23-.59.45-1.15.64-1.68.35.19.7.37,1.06.53C31.24,7.6,31.11,8.2,31,8.83Zm-.73-2.59c-.34-.18-.67-.37-1-.57L30,4.37c.24.14.48.28.73.41C30.58,5.23,30.42,5.72,30.22,6.24ZM29.1,5.6c-.33-.2-.65-.41-1-.62.38-.41.74-.78,1.09-1.1.22.15.45.3.69.44ZM28,4.91c-.31-.21-.61-.43-.89-.65a16,16,0,0,1,1.37-.9c.2.16.42.31.64.46C28.8,4.14,28.42,4.51,28,4.91Zm-1-.72c-.29-.22-.55-.43-.81-.65a14,14,0,0,1,1.63-.7c.18.16.37.31.58.47A13.9,13.9,0,0,0,27,4.19Zm-.17.12c-.48.34-1,.73-1.46,1.15-.36-.28-.71-.56-1-.83.56-.37,1.11-.7,1.66-1C26.3,3.86,26.58,4.09,26.87,4.31Zm-2.6.22c-.32-.27-.61-.55-.88-.82a17.6,17.6,0,0,1,1.85-.81c.22.22.46.44.71.66A18.12,18.12,0,0,0,24.27,4.53Zm-.2.13A20.39,20.39,0,0,0,22.4,5.89c-.37-.33-.72-.65-1-1a20.48,20.48,0,0,1,1.82-1.1Q23.59,4.24,24.07,4.66Zm-2.83.15q-.46-.48-.84-.93a19.55,19.55,0,0,1,2-1,10.46,10.46,0,0,0,.73.81A19.19,19.19,0,0,0,21.24,4.81ZM21,5A20.15,20.15,0,0,0,19.3,6.29c-.35-.35-.67-.7-.95-1A17.51,17.51,0,0,1,20.19,4,10.23,10.23,0,0,0,21,5ZM19.1,6.46C18.55,7,18,7.48,17.5,8a14.66,14.66,0,0,1-1-1.13A19.79,19.79,0,0,1,18.15,5.4C18.43,5.75,18.75,6.1,19.1,6.46ZM17.33,8.24A18.67,18.67,0,0,0,15.92,10a15.59,15.59,0,0,1-1.06-1.17A17.39,17.39,0,0,1,16.3,7.1C16.6,7.47,17,7.85,17.33,8.24Zm-2,3c.19-.31.38-.61.58-.91.41.4.85.81,1.33,1.22-.21.31-.4.61-.59.92s-.4.69-.58,1q-.7-.62-1.32-1.23C14.92,12,15.11,11.64,15.32,11.29Zm.74-1.13a20,20,0,0,1,1.4-1.79c.39.39.82.79,1.28,1.18-.48.59-.94,1.2-1.37,1.83C16.9,11,16.46,10.56,16.06,10.16Zm2.84-.47c.46.4,1,.8,1.49,1.2-.46.61-.9,1.24-1.32,1.88-.54-.42-1.05-.83-1.53-1.24C18,10.89,18.42,10.28,18.9,9.69Zm.17-.2c.48-.58,1-1.14,1.5-1.67.43.37.89.75,1.38,1.12q-.72.84-1.41,1.74C20,10.29,19.53,9.89,19.07,9.49Zm3.05-.42c.49.37,1,.74,1.54,1.1L22.37,12c-.57-.39-1.12-.78-1.65-1.18C21.18,10.22,21.65,9.63,22.12,9.07Zm.17-.2c.47-.55,1-1.09,1.45-1.59.44.33.9.66,1.37,1-.43.54-.86,1.11-1.3,1.7C23.28,9.61,22.77,9.24,22.29,8.87Zm3-.49c.48.32,1,.64,1.48.95-.36.59-.74,1.19-1.12,1.82-.56-.35-1.11-.7-1.64-1.06C24.43,9.5,24.85,8.93,25.28,8.38Zm1.66,1.06c.5.3,1,.6,1.55.88-.3.63-.61,1.27-.94,1.92-.58-.31-1.15-.64-1.72-1Zm1.73,1c.52.28,1,.54,1.58.79-.22.67-.47,1.34-.74,2-.59-.28-1.18-.58-1.76-.89C28.07,11.7,28.38,11.05,28.67,10.42Zm1.76.88.81.36L32,12c-.15.7-.34,1.4-.56,2.11l-.84-.35-.89-.4C30,12.65,30.22,12,30.43,11.3Zm1.74.74c.5.19,1,.36,1.42.49a21.06,21.06,0,0,1-.39,2.17c-.49-.16-1-.34-1.56-.55C31.85,13.44,32,12.74,32.17,12Zm1.57.54a12,12,0,0,0,1.22.3,18.4,18.4,0,0,1-.23,2.21c-.42-.09-.88-.2-1.36-.34A20.94,20.94,0,0,0,33.74,12.58Zm1.35.33a6.68,6.68,0,0,0,1,.12A16.52,16.52,0,0,1,36,15.25a8.54,8.54,0,0,1-1.12-.14A18.21,18.21,0,0,0,35.09,12.91Zm0-.25A17.5,17.5,0,0,0,35,10.48a5.79,5.79,0,0,0,.86.11,15.94,15.94,0,0,1,.23,2.19C35.8,12.76,35.46,12.72,35.1,12.66ZM35,10.24a15.61,15.61,0,0,0-.4-2.08,6.21,6.21,0,0,0,.68.08,14.74,14.74,0,0,1,.56,2.1A7.29,7.29,0,0,1,35,10.24Zm-.46-2.32A13.88,13.88,0,0,0,33.81,6l.48.06a13.68,13.68,0,0,1,.88,2A4.25,4.25,0,0,1,34.52,7.92Zm-.09,0c-.24,0-.51-.12-.79-.2a13.45,13.45,0,0,0-.46-1.87c.2.06.39.1.57.14A13.33,13.33,0,0,1,34.43,7.91ZM33.11,5.63A10.83,10.83,0,0,0,32.38,4l.3.07a11.65,11.65,0,0,1,1,1.73C33.49,5.73,33.3,5.69,33.11,5.63Zm-.07,0-.63-.22a1.42,1.42,0,0,1,0,.2l.66.23a14.88,14.88,0,0,1,.43,1.86h0c-.29-.09-.6-.2-.92-.32a14,14,0,0,0-.17-1.77,1.42,1.42,0,0,0,0-.2A10,10,0,0,0,32,3.84l.34.12A9.4,9.4,0,0,1,33,5.61Zm-.7-.25L32,5.22l-.36-.16a8.86,8.86,0,0,0-.07-1.4l.2.08.18.08A8.89,8.89,0,0,1,32.34,5.36Zm-.7-.12.37.17.36.14a14.11,14.11,0,0,1,.14,1.77L32,7.11l-.52-.23C31.57,6.3,31.62,5.75,31.64,5.24Zm-.27,1.58c-.34-.16-.69-.33-1-.51.18-.53.34-1,.47-1.48l.74.37Q31.51,6,31.37,6.82Zm-.6-2.19c-.23-.13-.46-.26-.68-.4.23-.38.44-.73.63-1l.37.22A11.65,11.65,0,0,1,30.77,4.63ZM30,4.19c-.23-.14-.45-.28-.66-.43.34-.31.66-.59,1-.82l.36.23Zm-.73-.48c-.22-.14-.42-.29-.62-.44a10.23,10.23,0,0,1,1.27-.6l.34.24A12,12,0,0,0,29.28,3.71Zm-.68-.49c-.2-.15-.38-.29-.55-.44a9.34,9.34,0,0,1,1.54-.38l.31.24A9.66,9.66,0,0,0,28.6,3.22ZM28,2.73l-.48-.44a10.09,10.09,0,0,1,1.79-.16l.26.24A9.31,9.31,0,0,0,28,2.73Zm-.19.06a12,12,0,0,0-1.65.68c-.25-.22-.48-.43-.69-.65a12.52,12.52,0,0,1,1.84-.49C27.45,2.48,27.62,2.63,27.8,2.79Zm-2.42,0c-.2-.21-.39-.41-.55-.61a12.82,12.82,0,0,1,2-.31,5.31,5.31,0,0,0,.4.44A13.18,13.18,0,0,0,25.38,2.75Zm-.21.08a14.45,14.45,0,0,0-1.88.79c-.26-.27-.5-.53-.71-.79a17.31,17.31,0,0,1,2-.64h0A8.19,8.19,0,0,0,25.17,2.83Zm-2.66-.09A5,5,0,0,1,22,2a15.81,15.81,0,0,1,2.12-.48,4.87,4.87,0,0,0,.41.59A16.89,16.89,0,0,0,22.51,2.74Zm-.23.09a16.75,16.75,0,0,0-2,.94,6.83,6.83,0,0,1-.6-.87,15.46,15.46,0,0,1,2-.81A6.29,6.29,0,0,0,22.28,2.83ZM20.1,3.9a18.42,18.42,0,0,0-1.84,1.23,8.34,8.34,0,0,1-.68-1A16,16,0,0,1,19.49,3,7.84,7.84,0,0,0,20.1,3.9ZM18.05,5.29a19.54,19.54,0,0,0-1.67,1.49,7.59,7.59,0,0,1-.72-1A15.61,15.61,0,0,1,17.37,4.3,7.65,7.65,0,0,0,18.05,5.29ZM16.2,7a17.49,17.49,0,0,0-1.45,1.75A9.76,9.76,0,0,1,14,7.63a15,15,0,0,1,1.47-1.71A9.59,9.59,0,0,0,16.2,7Zm-1.6,2c-.21.3-.4.6-.59.91s-.4.69-.57,1a8.92,8.92,0,0,1-.75-1.09c.17-.35.36-.7.56-1s.39-.62.6-.91A8.92,8.92,0,0,0,14.6,8.93Zm-1.27,2.18a13.81,13.81,0,0,0-.77,2A7.71,7.71,0,0,1,11.83,12a12.27,12.27,0,0,1,.75-2A8.92,8.92,0,0,0,13.33,11.11Zm-.18,5.32c-.35-.36-.67-.71-1-1.06a13.75,13.75,0,0,1,.39-1.93c.3.36.64.74,1,1.13A12,12,0,0,0,13.15,16.43Zm1.31,1.22c-.42-.37-.82-.74-1.18-1.1a13.5,13.5,0,0,1,.46-1.85c.39.39.81.78,1.27,1.17A15.6,15.6,0,0,0,14.46,17.65Zm.63-2c-.46-.4-.89-.79-1.27-1.18a14.2,14.2,0,0,1,.81-1.93c.4.4.84.81,1.32,1.22A18.29,18.29,0,0,0,15.09,15.66ZM16.73,17c-.52-.4-1-.8-1.48-1.2.24-.61.53-1.24.86-1.89.48.42,1,.83,1.54,1.24C17.3,15.79,17,16.4,16.73,17Zm1-2.07c-.54-.41-1.06-.83-1.54-1.24h0c.18-.34.37-.68.58-1s.38-.62.58-.92c.48.41,1,.83,1.54,1.24-.2.3-.39.61-.58.92S18,14.6,17.77,14.93Zm2.49.36c-.21.34-.41.68-.6,1-.59-.4-1.16-.81-1.71-1.22.19-.34.39-.68.59-1s.38-.62.58-.93c.54.42,1.12.83,1.71,1.23ZM21,14.14q-.88-.62-1.71-1.23c.42-.64.86-1.27,1.31-1.88.53.4,1.08.8,1.65,1.19C21.8,12.85,21.38,13.49,21,14.14Zm2,1.31c-.63-.38-1.24-.77-1.83-1.18.4-.64.82-1.29,1.24-1.92.58.39,1.17.77,1.78,1.15C23.8,14.14,23.41,14.8,23,15.45Zm1.33-2.18c-.61-.37-1.2-.75-1.77-1.13.42-.63.85-1.24,1.28-1.84.53.36,1.09.72,1.65,1.06Zm2.06,1.19c-.63-.34-1.25-.7-1.85-1.06l1.15-1.92c.57.34,1.15.68,1.73,1C27.1,13.13,26.76,13.79,26.4,14.46Zm2.1,1.06c-.63-.3-1.26-.61-1.89-.95.36-.67.7-1.33,1-2,.58.31,1.18.61,1.77.89C29.13,14.15,28.83,14.84,28.5,15.52Zm2.09.91c-.29-.12-.6-.24-.91-.38s-.64-.28-1-.43c.32-.68.62-1.37.89-2l.9.4.86.35C31.14,15,30.88,15.73,30.59,16.43Zm1.9.67c-.53-.17-1.09-.36-1.69-.59.29-.7.54-1.41.76-2.11.56.21,1.08.39,1.58.55A21.18,21.18,0,0,1,32.49,17.1Zm1.64.42a14.91,14.91,0,0,1-1.46-.37A21.11,21.11,0,0,0,33.31,15c.49.14.95.26,1.37.34A18.8,18.8,0,0,1,34.13,17.52Zm1.37.17a8,8,0,0,1-1.21-.14,21,21,0,0,0,.54-2.18,10.52,10.52,0,0,0,1.13.14A15.1,15.1,0,0,1,35.5,17.69Zm1.06-.06a4.44,4.44,0,0,1-.94.07,15,15,0,0,0,.46-2.19,4,4,0,0,0,.88-.06A13.69,13.69,0,0,1,36.56,17.63ZM37,15.19a3.87,3.87,0,0,1-.87.06,14.87,14.87,0,0,0,.1-2.21A4.62,4.62,0,0,0,37,13,14.83,14.83,0,0,1,37,15.19Zm0-2.47a3.09,3.09,0,0,1-.78.06A16,16,0,0,0,36,10.59a2.81,2.81,0,0,0,.67-.05A14.77,14.77,0,0,1,37,12.72Zm-.41-2.43a2.68,2.68,0,0,1-.66.05,15.18,15.18,0,0,0-.58-2.1,2.2,2.2,0,0,0,.53,0A15.59,15.59,0,0,1,36.57,10.29ZM35.75,8a2.51,2.51,0,0,1-.51,0,14,14,0,0,0-.91-2,2,2,0,0,0,.37,0A14.65,14.65,0,0,1,35.75,8Zm-2.58-3.9a12.93,12.93,0,0,1,1.39,1.74,1.3,1.3,0,0,1-.35,0A13.13,13.13,0,0,0,33,4.08Zm-.21,0a12.32,12.32,0,0,1,1.2,1.75,2.68,2.68,0,0,1-.45,0,11.8,11.8,0,0,0-1-1.73ZM31.28,2.4A11.89,11.89,0,0,1,32.8,3.89l-.22,0a10.67,10.67,0,0,0-1.3-1.46Zm0,0a9.92,9.92,0,0,1,1.28,1.46l-.27-.07a8.47,8.47,0,0,0-1-1.4Zm0,0a8.62,8.62,0,0,1,1,1.39l-.31-.11a6.2,6.2,0,0,0-.67-1.28Zm0,0h0a6,6,0,0,1,.63,1.27l-.16-.07-.18-.08a5.35,5.35,0,0,0-.3-1.12Zm0,0h0a4.51,4.51,0,0,1,.27,1.11,3.84,3.84,0,0,1-.35-.18s0,.09,0,.13l.39.19a10.47,10.47,0,0,1,0,1.39l-.7-.35c.12-.45.21-.86.28-1.23,0,0,0-.08,0-.13A4.58,4.58,0,0,0,31.23,2.38Zm0,0a4.84,4.84,0,0,1-.11.91l-.34-.19.44-.73Zm0,0-.48.7-.33-.2a4.43,4.43,0,0,1,.8-.5Zm0,0a4.25,4.25,0,0,0-.83.47l-.31-.22a4.68,4.68,0,0,1,1.13-.26Zm0,0A4.37,4.37,0,0,0,30,2.6l-.27-.22a5.66,5.66,0,0,1,1.42,0Zm0,0a6.39,6.39,0,0,0-1.45,0,1.7,1.7,0,0,1-.24-.22,9.19,9.19,0,0,1,1.68.21Zm0,0a8.6,8.6,0,0,0-1.7-.23,1.8,1.8,0,0,1-.19-.21,10,10,0,0,1,1.89.44Zm0,0a9.67,9.67,0,0,0-1.91-.46,1.13,1.13,0,0,1-.13-.2,12.29,12.29,0,0,1,2,.65Zm0,0h0a12.48,12.48,0,0,0-2-.67.43.43,0,0,1-.07-.16A13,13,0,0,1,31.17,2.33Zm-2.1-.46c.06.08.13.15.2.23a11.3,11.3,0,0,0-1.81.14c-.14-.14-.26-.29-.38-.42A12,12,0,0,1,29.07,1.87Zm0,0a12.13,12.13,0,0,0-2-.08,2.76,2.76,0,0,1-.27-.39,13.78,13.78,0,0,1,2.12.25A2.17,2.17,0,0,0,29.05,1.85Zm-.24-.43a.89.89,0,0,0,.07.19,12.66,12.66,0,0,0-2.13-.27A1.75,1.75,0,0,1,26.61,1,14,14,0,0,1,28.81,1.42Zm-2,.36a14.52,14.52,0,0,0-2,.29,5.3,5.3,0,0,1-.39-.57,14,14,0,0,1,2.15-.13A3,3,0,0,0,26.81,1.78Zm-.31-.45a14.2,14.2,0,0,0-2.16.1,2.11,2.11,0,0,1-.2-.49,14.8,14.8,0,0,1,2.21,0A1.93,1.93,0,0,0,26.5,1.33ZM24.12.51a15.07,15.07,0,0,1,2.22.16.5.5,0,0,0,0,.27,15,15,0,0,0-2.22,0A.82.82,0,0,1,24.12.51Zm0,1A15.87,15.87,0,0,0,22,1.93a3.13,3.13,0,0,1-.26-.63A16.19,16.19,0,0,1,23.88,1,2.51,2.51,0,0,0,24.09,1.47ZM21.68.75A14.39,14.39,0,0,1,23.86.52a1,1,0,0,0,0,.39,14.65,14.65,0,0,0-2.19.33A1,1,0,0,1,21.68.75Zm0,1.26a13.82,13.82,0,0,0-2,.8,2.94,2.94,0,0,1-.31-.74,14.25,14.25,0,0,1,2.09-.7A3,3,0,0,0,21.72,2Zm-2.39-.6A14.89,14.89,0,0,1,21.43.8a1,1,0,0,0,0,.5,15.17,15.17,0,0,0-2.1.69A1.27,1.27,0,0,1,19.33,1.41Zm.11,1.51a16.93,16.93,0,0,0-1.92,1.13,4,4,0,0,1-.35-.84,14.07,14.07,0,0,1,1.95-1A3.5,3.5,0,0,0,19.44,2.92Zm-2.3-.44a13.12,13.12,0,0,1,1.95-1,1.43,1.43,0,0,0,0,.58,15.16,15.16,0,0,0-2,1A1.54,1.54,0,0,1,17.14,2.48Zm.17,1.71a15.52,15.52,0,0,0-1.72,1.43,4,4,0,0,1-.37-.9A14.36,14.36,0,0,1,17,3.35,4,4,0,0,0,17.31,4.19Zm-2.13-.26a13.15,13.15,0,0,1,1.75-1.32,1.43,1.43,0,0,0,0,.65,13.53,13.53,0,0,0-1.75,1.37A1.66,1.66,0,0,1,15.18,3.93Zm.23,1.87a14.18,14.18,0,0,0-1.48,1.71,4.1,4.1,0,0,1-.39-.94A14,14,0,0,1,15,4.89,3.54,3.54,0,0,0,15.41,5.8Zm-1.91,0A13.06,13.06,0,0,1,15,4.1a1.66,1.66,0,0,0,0,.7,13.27,13.27,0,0,0-1.48,1.68A1.82,1.82,0,0,1,13.5,5.75Zm.28,2c-.21.29-.41.6-.6.91s-.39.69-.56,1a4.1,4.1,0,0,1-.39-.94c.17-.35.36-.7.56-1s.39-.62.6-.91A3.92,3.92,0,0,0,13.78,7.72Zm-1.59.19q.26-.53.57-1a10.71,10.71,0,0,1,.59-.9,1.64,1.64,0,0,0,0,.73c-.21.29-.4.59-.59.9a10.65,10.65,0,0,0-.57,1.05A1.64,1.64,0,0,1,12.19,7.91ZM12.12,9a3.92,3.92,0,0,0,.39.94,13.36,13.36,0,0,0-.75,2,4.24,4.24,0,0,1-.37-.91A12.57,12.57,0,0,1,12.12,9Zm-.79,2.29a4,4,0,0,0,.37.9,11.81,11.81,0,0,0-.33,2,4,4,0,0,1-.35-.84A11.49,11.49,0,0,1,11.33,11.25Zm-.22,4.37a11.64,11.64,0,0,1-.1-2,3.46,3.46,0,0,0,.35.83,9.91,9.91,0,0,0,.07,2A2.91,2.91,0,0,1,11.11,15.62Zm.63,2.48c-.1-.38-.54-1.9-.59-2.24a3.1,3.1,0,0,0,.31.74,9.81,9.81,0,0,0,.45,1.87A2.39,2.39,0,0,1,11.74,18.1Z" transform="translate(-2.21 -0.26)"/><text class="cls-2" transform="translate(10.18 26.33)">ISOCERT</text><path class="cls-3" d="M24,20.57a120.15,120.15,0,0,1,22,2.2,59.57,59.57,0,0,0-22-4.45A53.54,53.54,0,0,0,3.26,22.61,113.54,113.54,0,0,1,24,20.57Z" transform="translate(-2.21 -0.26)"/><path class="cls-4" d="M-1092.92,78" transform="translate(-2.21 -0.26)"/></svg>